<?xml version="1.0" encoding="UTF-8" standalone="no"?>
<svg
   xmlns:dc="http://purl.org/dc/elements/1.1/"
   xmlns:cc="http://creativecommons.org/ns#"
   xmlns:rdf="http://www.w3.org/1999/02/22-rdf-syntax-ns#"
   xmlns:svg="http://www.w3.org/2000/svg"
   xmlns="http://www.w3.org/2000/svg"
   xmlns:sodipodi="http://sodipodi.sourceforge.net/DTD/sodipodi-0.dtd"
   xmlns:inkscape="http://www.inkscape.org/namespaces/inkscape"
   version="1.1"
   id="Layer_1"
   x="0px"
   y="0px"
   viewBox="0 0 44.975063 48.000001"
   xml:space="preserve"
   sodipodi:docname="logomat-logo.svg"
   inkscape:version="1.0.2 (16c81841c1, 2021-03-16)"
   width="44.975063"
   height="48"><metadata
   id="metadata45"><rdf:RDF><cc:Work
       rdf:about=""><dc:format>image/svg+xml</dc:format><dc:type
         rdf:resource="http://purl.org/dc/dcmitype/StillImage" /><dc:title></dc:title></cc:Work></rdf:RDF></metadata><defs
   id="defs43">
	
	
	
	
	
	
	
	
	
	
	
	
	
	
	
	
	
</defs><sodipodi:namedview
   pagecolor="#ffffff"
   bordercolor="#666666"
   borderopacity="1"
   objecttolerance="10"
   gridtolerance="10"
   guidetolerance="10"
   inkscape:pageopacity="0"
   inkscape:pageshadow="2"
   inkscape:window-width="1920"
   inkscape:window-height="1052"
   id="namedview41"
   showgrid="false"
   inkscape:zoom="2.259012"
   inkscape:cx="164.76329"
   inkscape:cy="169.265"
   inkscape:window-x="1920"
   inkscape:window-y="0"
   inkscape:window-maximized="1"
   inkscape:current-layer="Layer_1"
   fit-margin-top="0"
   fit-margin-left="0"
   fit-margin-right="0"
   fit-margin-bottom="0"
   inkscape:document-rotation="0" />
<style
   type="text/css"
   id="style2">
	.st0{fill:#2B4B9B;}
	.st1{fill:#FFFFFF;}
	.st2{fill:#2C4C9C;}
	.st3{fill:#324F9D;}
	.st4{fill:#2B4C9B;}
	.st5{fill:#37474F;}
</style>
<path
   id="path6"
   d="M 31.879789,7.775692e-4 C 31.662999,-0.01169884 31.464309,0.12589798 31.24693,0.41852291 30.994251,0.76038316 30.756377,1.1022434 30.518561,1.4589672 30.38479,1.667056 30.266056,1.7262778 30.02824,1.5925064 29.641789,1.3844175 29.240475,1.2062299 28.839161,1.027868 28.304075,0.79005217 27.87286,1.057537 27.843133,1.637213 c -0.04459,0.9363998 -0.07426,1.8876631 -0.08912,2.8240629 -0.04459,2.7200185 -0.104102,5.4400951 -0.133829,8.1601131 0,0.312133 -0.0742,0.416004 -0.401198,0.416004 -0.862083,0 -1.709186,0.05945 -2.556404,0.07432 -3.44833,0.04459 -6.896659,0.0151 -10.330125,0.163731 -1.307987,0.05945 -2.274346,-0.341861 -3.210746,-1.189079 C 9.709677,10.837829 8.2086967,9.6931659 6.7520748,8.4892233 6.4696685,8.2662709 6.1722245,8.1326737 5.8303642,8.2961721 5.518231,8.444807 5.458719,8.7567081 5.4735825,9.0985684 c 0.014863,0.3269967 0,0.6542256 0,0.9812226 -0.029727,0.01486 -0.074201,0.02961 -0.1039283,0.02961 C 5.2358828,9.9310398 5.1022275,9.7675415 4.9684561,9.5891796 L 2.1591987,5.7989899 C 1.743021,5.2490408 1.2227989,5.2639043 0.8958021,5.8733073 0.40530697,6.7651167 0.12278445,7.7014584 0.03360351,8.7121756 -0.20421231,11.387604 0.83617395,13.572595 2.6495196,15.460258 c 1.426895,1.486349 3.1214488,2.601227 4.9496579,3.537626 0.4013142,0.208089 0.5203382,0.445731 0.4906113,0.861909 -0.029727,0.609403 -0.044765,1.218922 -0.029901,1.828325 0.059454,3.284831 -0.2229524,6.584584 0.2229523,9.869415 0.1337714,1.055307 0.2379321,2.125305 0.9365161,3.017114 1.7538918,2.25925 5.0982348,2.066025 6.5994468,-0.371587 0.104044,-0.163499 0.104044,-0.475632 0.445904,-0.371587 0.460768,0.148634 0.921363,0.08918 1.382131,0.07432 1.649847,-0.02973 2.898554,-1.055308 3.299868,-2.675428 0.356724,-1.441758 0.163441,-2.868537 -0.208147,-4.265705 -0.08918,-0.326997 -0.08935,-0.475806 0.341687,-0.550123 2.60111,-0.445905 5.2172,-0.41612 7.848038,-0.386393 1.218806,0.02973 1.634926,0.475631 1.798424,1.709301 0.148635,1.144489 0.05963,2.288919 0.104218,3.433408 0.04459,1.070171 0.133772,2.1404 0.668857,3.106527 0.966127,1.753892 3.09149,2.051278 4.488658,0.639246 0.832356,-0.847219 1.218864,-1.887663 1.248591,-3.047015 0.08918,-3.463193 0.148577,-6.911638 0.237758,-10.374831 0.04459,-1.590394 -0.01498,-3.180729 0.103929,-4.771122 0.01486,-0.282407 0.118908,-0.35684 0.371587,-0.416294 0.832355,-0.178362 1.664769,-0.430925 2.511987,-0.624151 1.605257,-0.371587 2.957835,-1.070171 3.864508,-2.526793 1.263396,-2.036298 0.639246,-4.2508998 -1.51596,-5.291344 C 42.08253,7.5083492 41.354045,7.1663148 40.625734,6.7947276 39.392064,6.1853245 38.128726,5.6651024 37.118008,4.6395217 35.616796,3.1234458 34.011539,1.7412574 32.436009,0.29949892 32.227921,0.11091841 32.048405,0.01048105 31.879789,7.775692e-4 Z M 31.95672,1.7356255 c 0.05574,-0.00929 0.122508,0.020612 0.196825,0.094929 0.520222,0.4904951 1.05554,0.9659526 1.575762,1.4564477 -0.01486,0.029727 -0.04465,0.059396 -0.05951,0.089123 C 33.00094,3.0639919 32.302356,2.7815856 31.663226,2.4099984 31.38082,2.2465 31.752346,2.0533326 31.826666,1.8749708 c 0.02973,-0.081749 0.07432,-0.1300556 0.130056,-0.1393452 z m -2.777034,1.0468309 c 0.07986,0.00149 0.185329,0.042036 0.313526,0.1033478 2.497067,1.2336695 4.994133,2.4374959 7.506062,3.6711655 1.590394,0.7729014 3.180729,1.5459771 4.771122,2.333742 0.118908,0.089181 0.222953,0.1484027 0.445905,0.2821741 -0.609403,0.059454 -1.070287,0.089181 -1.531055,0.1486349 -0.668857,0.074317 -0.891636,0.5054166 -0.564639,1.0999563 0.445905,0.802628 0.906673,1.605373 1.412032,2.497182 -1.263397,0.08918 -2.467456,0.371645 -3.537627,-0.46071 -0.34186,-0.267543 -0.698526,-0.252737 -0.980932,0.08912 -0.282406,0.34186 -0.16344,0.668683 0.133829,0.936226 0.728311,0.653993 1.63481,0.802744 2.57121,0.862198 0.252679,0.01486 0.505301,0 0.75798,0.07432 -1.174216,0.267543 -2.348257,0.550066 -3.537337,0.787882 -0.490495,0.104044 -0.653935,0.356665 -0.683662,0.832297 -0.118908,1.664711 -0.05963,3.329364 -0.104218,4.994074 -0.08918,3.611828 -0.148577,7.208909 -0.237758,10.820736 -0.01486,0.772902 -0.267601,1.486117 -0.802687,2.065793 -0.802628,0.876946 -1.932253,0.743175 -2.526793,-0.297269 -0.475631,-0.862083 -0.445962,-1.813346 -0.505416,-2.749746 -0.07432,-1.307987 0.0893,-2.630605 -0.252564,-3.923729 -0.38645,-1.471485 -1.233727,-2.140342 -2.73494,-2.155206 -2.066025,-0.02973 -4.146797,-0.104218 -6.197959,0.118734 -2.274113,0.252679 -4.548401,0.520338 -6.569836,1.754008 -0.728311,0.445904 -1.307813,0.951205 -1.159178,1.947059 0.193225,1.189079 0.222837,2.407827 -0.04471,3.582043 -0.267543,1.218806 -0.787765,2.274114 -2.155206,2.60111 -1.545803,0.371588 -2.9726977,-0.535027 -3.2699675,-2.095694 -0.3121334,-1.66471 -0.4607102,-3.329537 -0.4607102,-5.023975 0.014864,-2.274114 -0.029611,-4.563091 0.044707,-6.837205 0.04459,-1.857936 0.059454,-3.730678 0.2972696,-5.588614 0.04459,-0.38645 0.1336555,-0.594482 0.6241501,-0.609345 3.032152,-0.08918 6.079283,-0.04465 9.111435,-0.13383 2.690291,-0.07432 5.365603,1.49e-4 8.055895,-0.118734 1.159352,-0.04459 1.456737,0.208089 1.456737,-1.486349 0,-2.838926 0.07409,-5.6631628 0.13354,-8.5020892 0,-0.4013142 0.07443,-0.8173757 0.04471,-1.2186899 -0.01858,-0.2972697 0.04398,-0.403085 0.177085,-0.4006175 z M 1.6537819,7.3596562 c 1.2782601,1.7093013 2.4970662,3.3294798 3.7158723,4.9644628 0.089181,0.118908 0.1635565,0.252506 0.2824644,0.341687 0.1783619,0.163498 0.3865087,0.267774 0.6540515,0.16373 0.2675428,-0.104044 0.4159455,-0.282464 0.430809,-0.579734 0.029727,-0.63913 0.074433,-1.27826 0.119024,-2.006571 1.2336696,1.010717 2.4078271,1.961923 3.6563599,2.987503 -0.312133,0.04459 -0.5350852,0.08906 -0.743174,0.103929 -0.876946,0.05945 -1.0701714,0.223126 -1.2633967,1.144662 C 8.2828399,15.56436 8.2382495,16.664143 8.134205,17.853222 5.2804151,16.218238 2.6199668,14.494073 1.5646591,11.164651 1.1633449,9.9161182 1.1781503,8.6825068 1.6537819,7.3596562 Z M 43.23294,10.337579 c 0.240603,-0.0053 0.367581,0.111941 0.380587,0.411069 0.05945,0.68372 -0.133945,1.263222 -0.62444,1.828035 -0.401315,-0.698584 -0.787765,-1.367499 -1.18908,-2.066083 0.490496,-0.05945 0.906731,-0.103987 1.322909,-0.163441 0.03902,-0.0056 0.07565,-0.0088 0.110024,-0.0096 z M 19.134639,26.878147 c 0.107295,-0.0084 0.17691,0.04186 0.2215,0.175633 0.326997,1.233669 0.564871,2.497124 0.282464,3.775384 -0.282406,1.307987 -1.174331,1.90241 -2.497182,1.813229 -0.237816,-0.01486 -0.445731,-0.05945 -0.713273,-0.07432 0.237816,-1.382305 0.267542,-2.720076 0.07432,-4.072654 -0.04459,-0.267543 0.04447,-0.430867 0.252564,-0.564639 0.698583,-0.445904 1.471659,-0.758096 2.259424,-1.025638 0.04459,-0.01486 0.08442,-0.02421 0.120186,-0.027 z"
   style="fill:#ffffff;fill-opacity:1;stroke-width:1" /><path
   id="path20"
   style="fill:#ffffff;fill-opacity:1;stroke-width:1"
   d="m 17.765862,41.233606 c -1.099898,-0.01486 -1.75395,0.445789 -2.066083,1.51596 -0.326997,1.114762 -0.341918,2.244387 -0.05951,3.344285 0.252679,0.951263 0.936342,1.605315 1.947059,1.843131 0.951263,0.222952 1.649847,-0.163557 2.229523,-0.877004 0.25268,-0.312134 0.490669,-0.653878 0.698758,-0.995738 0.371587,-0.59454 0.0742,-1.129741 -0.639246,-1.159468 -0.549949,-0.01486 -1.114646,0 -1.664595,0 -0.326996,0 -0.609577,0.08935 -0.62444,0.475805 -0.01486,0.371588 0.297386,0.460595 0.564928,0.490322 0.386451,0.04459 0.773018,0.0148 1.159469,0.0148 0.01486,0.05945 0.04442,0.104218 0.04442,0.104218 -0.386451,0.460768 -0.698584,1.040386 -1.412031,0.980932 -0.668857,-0.05945 -1.144547,-0.490495 -1.322909,-1.114761 -0.29727,-1.055308 -0.267369,-2.110558 0.178536,-3.136139 0.104044,-0.237815 0.267427,-0.490611 0.549833,-0.490611 0.817492,-0.01486 1.634984,-0.02967 2.155206,0.802687 0.163498,0.267542 0.386509,0.505358 0.728369,0.297269 0.371587,-0.222952 0.282348,-0.550065 0.08912,-0.862198 -0.579676,-0.966127 -1.51596,-1.218632 -2.556404,-1.233496 z m -12.7529897,0.02961 c -0.4756316,-0.01486 -0.5647544,0.356898 -0.5350274,0.773075 0.059454,1.144489 0.089181,2.28892 0.2229523,3.433408 0.089181,0.758038 0.4161196,1.174042 0.9809321,1.233496 0.6094031,0.05945 1.2039427,0.163614 1.7093013,0.119024 0.4607681,0 0.81755,5.8e-5 1.1742737,-0.0148 0.2824063,0 0.4606521,-0.119024 0.4755156,-0.416294 0.014863,-0.29727 -0.1187918,-0.460826 -0.4011981,-0.505416 -0.2080889,-0.02973 -0.4310993,-0.05945 -0.6540517,-0.07432 -0.609403,-0.04459 -1.2186319,-0.08912 -1.8280349,-0.08912 -0.3269968,0 -0.4312734,-0.118908 -0.4610003,-0.445904 C 5.577627,44.19133 5.4886782,43.091432 5.4886782,42.006397 c 0,-0.371587 -0.044765,-0.728311 -0.4758059,-0.743174 z m 7.2386937,0.178536 c -1.307987,-0.02973 -2.541831,1.32285 -2.5566945,2.824063 -0.014863,1.441758 0.9810485,2.511871 2.3633525,2.541598 1.382305,0.02973 2.824005,-1.293123 2.838868,-2.60111 0.01486,-1.27826 -1.38213,-2.734824 -2.645526,-2.764551 z m 26.278474,0.05922 c -0.267543,0.01486 -0.475458,0.178478 -0.490321,0.490611 0,0.282406 -0.0151,0.549891 -0.0151,0.832297 -0.01486,0.29727 -0.04459,0.520396 -0.445904,0.550123 -0.267543,0.01486 -0.460537,0.2377 -0.43081,0.549834 0.01486,0.312133 0.207857,0.46071 0.505127,0.46071 0.386451,0.01486 0.490495,0.208204 0.520222,0.564928 0.05945,0.59454 0.133945,1.1741 0.327171,1.738913 0.222952,0.624266 0.639014,0.995969 1.21869,1.010833 0.416178,-0.04459 0.847393,-0.252796 1.144663,-0.713564 0.133771,-0.222952 0.103986,-0.416119 -0.05951,-0.609345 -0.163499,-0.193225 -0.371704,-0.148577 -0.564929,-0.08912 -0.104044,0.04459 -0.193283,0.103929 -0.282464,0.178246 -0.29727,0.222953 -0.475574,0.133714 -0.535028,-0.208147 -0.05945,-0.356723 -0.08912,-0.698584 -0.16344,-1.040444 -0.05945,-0.267543 -0.178362,-0.564812 -0.07432,-0.817492 0.133772,-0.312133 0.47569,-0.103986 0.728369,-0.16344 0.282407,-0.05945 0.475516,-0.163557 0.475516,-0.505417 0,-0.34186 -0.222778,-0.520106 -0.490321,-0.475515 -0.772902,0.133771 -0.892041,-0.267543 -0.832587,-0.89181 0,-0.133771 -0.01474,-0.252621 -0.02961,-0.386393 -0.04459,-0.282406 -0.193283,-0.490669 -0.505416,-0.475805 z m -26.263669,0.936516 c 0.63913,0.01486 1.664711,1.114645 1.634984,1.738912 -0.02973,0.787765 -0.981164,1.590393 -1.81352,1.560666 -0.906673,-0.02973 -1.411857,-0.594423 -1.38213,-1.51596 0.02973,-0.9364 0.787765,-1.798482 1.560666,-1.783618 z m 17.582462,0.206404 c -0.308729,-0.01486 -0.636227,0.106716 -0.935355,0.37333 -0.118907,0.104044 -0.208146,0.252737 -0.356781,0.431099 -0.505359,-0.832356 -1.144489,-0.951321 -1.857936,-0.505417 -0.133772,0.07432 -0.223011,0.02979 -0.356782,-0.0148 -0.535086,-0.193225 -0.862024,0.05945 -0.75798,0.59454 0.193225,0.951263 0.133655,1.917216 0.252563,2.868479 0.02973,0.34186 0.104103,0.668857 0.505417,0.668857 0.401314,0.01486 0.490553,-0.297328 0.505416,-0.654051 0.02973,-0.713448 0.07426,-1.441527 0.237758,-2.140111 0.04459,-0.178362 0.08936,-0.446136 0.327171,-0.461 0.252679,-0.01486 0.282232,0.252737 0.341686,0.431099 0.237816,0.668857 0.312134,1.367557 0.445905,2.051278 0.05945,0.29727 0.119082,0.668683 0.550123,0.638956 0.445905,-0.02973 0.430809,-0.371471 0.430809,-0.698468 V 45.67785 c -0.01486,-0.564813 0.04465,-1.099957 0.282465,-1.620179 0.05945,-0.133771 0.118965,-0.312075 0.282464,-0.312075 0.193225,0 0.252679,0.207857 0.29727,0.356492 0.04459,0.148635 0.0893,0.312307 0.119023,0.475805 0.08918,0.475632 0.163267,0.980817 0.282175,1.456449 0.04459,0.208088 0.163556,0.460884 0.431099,0.416293 0.282406,-0.04459 0.535144,-0.223068 0.505417,-0.564928 -0.07432,-0.862083 -0.11885,-1.739029 -0.535028,-2.526794 -0.2341,-0.451478 -0.59996,-0.69591 -0.996899,-0.715015 z m 4.14523,2.98e-4 c -0.05857,0.0026 -0.117108,0.0079 -0.175633,0.01626 -0.817492,0.118908 -1.649905,1.055366 -1.843131,2.066083 -0.118908,0.653994 0.401372,1.709302 1.025639,2.080889 0.594539,0.34186 1.278144,0.222778 1.738912,-0.327171 0.163499,-0.193225 0.29727,-0.40114 0.520222,-0.713273 0.118908,0.460768 0.193284,0.817318 0.282465,1.159178 0.07432,0.326997 0.326938,0.356897 0.609345,0.32717 0.297269,-0.02973 0.356839,-0.237989 0.341976,-0.475805 0,-0.133771 0.01492,-0.267485 -0.0148,-0.386393 -0.163499,-0.772901 -0.326997,-1.545745 -0.520222,-2.318646 -0.222953,-0.86394 -1.086185,-1.466551 -1.964768,-1.428289 z m -11.105232,0.182311 c -0.397969,0.01433 -0.729995,0.2233 -1.005899,0.621827 -0.609403,0.862083 -0.668799,1.827978 -0.46071,2.808968 0.133771,0.68372 0.891867,1.21898 1.545861,1.21898 0.951263,0.01486 1.694496,-0.698584 1.768813,-1.709301 0.02973,-0.445905 -0.0893,-0.936574 0.103928,-1.367615 0.222953,-0.520222 -0.02978,-0.802397 -0.431099,-1.025349 -0.297269,-0.163499 -0.609229,-0.326997 -0.936226,-0.445905 -0.209017,-0.07432 -0.403774,-0.10812 -0.584668,-0.101605 z m 11.152551,0.868585 c 0.136385,-0.0073 0.280606,0.02613 0.431099,0.109734 0.401314,0.222952 0.163441,0.565045 0.08912,0.832587 -0.118908,0.341861 -0.282348,0.683605 -0.46071,0.995738 -0.29727,0.505359 -0.445963,0.490611 -0.802686,0.04471 -0.163499,-0.208089 -0.282581,-0.4311 -0.252854,-0.654052 0,-0.416178 0.148867,-0.728485 0.386683,-0.996028 0.176504,-0.195083 0.382038,-0.320494 0.609345,-0.332686 z m -10.954565,0.213952 c 0.267543,0.01486 0.386682,0.223011 0.461,0.4311 0.133771,0.312133 0.193109,0.639072 0.178246,0.906614 0,0.787765 -0.282349,1.233612 -0.75798,1.203885 -0.386451,-0.02973 -0.75798,-0.698642 -0.683663,-1.248591 0.04459,-0.326997 0.118908,-0.65382 0.29727,-0.936226 0.118908,-0.193225 0.252448,-0.371645 0.505127,-0.356782 z" />
</svg>
