<?xml version="1.0" encoding="UTF-8" standalone="no"?>
<svg
   xmlns:dc="http://purl.org/dc/elements/1.1/"
   xmlns:cc="http://creativecommons.org/ns#"
   xmlns:rdf="http://www.w3.org/1999/02/22-rdf-syntax-ns#"
   xmlns:svg="http://www.w3.org/2000/svg"
   xmlns="http://www.w3.org/2000/svg"
   xmlns:sodipodi="http://sodipodi.sourceforge.net/DTD/sodipodi-0.dtd"
   xmlns:inkscape="http://www.inkscape.org/namespaces/inkscape"
   version="1.1"
   id="Layer_1"
   x="0px"
   y="0px"
   viewBox="0 0 302.58752 322.939"
   xml:space="preserve"
   sodipodi:docname="logomat-logo.svg"
   inkscape:version="1.0.2 (16c81841c1, 2021-03-16)"
   width="302.58752"
   height="322.939"><metadata
   id="metadata45"><rdf:RDF><cc:Work
       rdf:about=""><dc:format>image/svg+xml</dc:format><dc:type
         rdf:resource="http://purl.org/dc/dcmitype/StillImage" /><dc:title></dc:title></cc:Work></rdf:RDF></metadata><defs
   id="defs43">
	
	
	
	
	
	
	
	
	
	
	
	
	
	
	
	
	
</defs><sodipodi:namedview
   pagecolor="#ffffff"
   bordercolor="#666666"
   borderopacity="1"
   objecttolerance="10"
   gridtolerance="10"
   guidetolerance="10"
   inkscape:pageopacity="0"
   inkscape:pageshadow="2"
   inkscape:window-width="1920"
   inkscape:window-height="1024"
   id="namedview41"
   showgrid="false"
   inkscape:zoom="2.259012"
   inkscape:cx="164.76329"
   inkscape:cy="204.67871"
   inkscape:window-x="0"
   inkscape:window-y="28"
   inkscape:window-maximized="1"
   inkscape:current-layer="Layer_1"
   fit-margin-top="0"
   fit-margin-left="0"
   fit-margin-right="0"
   fit-margin-bottom="0" />
<style
   type="text/css"
   id="style2">
	.st0{fill:#2B4B9B;}
	.st1{fill:#FFFFFF;}
	.st2{fill:#2C4C9C;}
	.st3{fill:#324F9D;}
	.st4{fill:#2B4C9B;}
	.st5{fill:#37474F;}
</style>
<path
   id="path6"
   d="m 214.48389,0.00523083 c -1.45854,-0.08394 -2.79531,0.841797 -4.25781,2.81054697 -1.7,2.3 -3.30039,4.6 -4.90039,7 -0.9,1.4000002 -1.69883,1.7984382 -3.29883,0.8984382 -2.6,-1.4000002 -5.3,-2.5988282 -8,-3.7988282 -3.6,-1.6 -6.50117,0.199609 -6.70117,4.0996092 -0.3,6.3 -0.49961,12.7 -0.59961,19 -0.3,18.3 -0.70039,36.600391 -0.90039,54.90039 0,2.1 -0.49922,2.79883 -2.69922,2.79883 -5.8,0 -11.49922,0.4 -17.19922,0.5 -23.2,0.3 -46.4,0.10156 -69.499998,1.10156 -8.8,0.4 -15.30156,-2.3 -21.60156,-7.999999 -9.5,-8.4 -19.598439,-16.101172 -29.398439,-24.201172 -1.9,-1.5 -3.901172,-2.398828 -6.201172,-1.298828 -2.1,1 -2.50039,3.098438 -2.40039,5.398438 0.1,2.2 0,4.401562 0,6.601562 -0.2,0.1 -0.499219,0.199219 -0.699219,0.199219 -0.9,-1.2 -1.799219,-2.3 -2.699219,-3.5 l -18.90039,-25.5 c -2.8,-3.7 -6.3000001,-3.6 -8.5000001,0.5 -3.3,6 -5.20078198,12.299609 -5.80078198,19.099609 -1.60000002,18 5.39960998,32.700391 17.59961008,45.400394 9.6,10 21.000781,17.50078 33.300781,23.80078 2.7,1.4 3.500781,2.99883 3.300781,5.79883 -0.2,4.1 -0.301172,8.20078 -0.201172,12.30078 0.4,22.1 -1.5,44.30039 1.5,66.40039 0.9,7.1 1.600782,14.29883 6.300782,20.29883 11.799999,15.2 34.300389,13.9 44.400387,-2.5 0.7,-1.1 0.7,-3.2 3,-2.5 3.1,1 6.19883,0.6 9.29883,0.5 11.1,-0.2 19.50117,-7.1 22.20117,-18 2.4,-9.7 1.09961,-19.29922 -1.40039,-28.69922 -0.6,-2.2 -0.60117,-3.20117 2.29883,-3.70117 17.5,-3 35.10078,-2.79961 52.80078,-2.59961 8.2,0.2 10.99961,3.2 12.09961,11.5 1,7.7 0.40117,15.39961 0.70117,23.09961 0.3,7.2 0.9,14.40039 4.5,20.90039 6.5,11.8 20.79922,13.80078 30.19922,4.30078 5.6,-5.7 8.20039,-12.7 8.40039,-20.5 0.6,-23.3 0.99961,-46.50078 1.59961,-69.80078 0.3,-10.7 -0.10078,-21.39961 0.69922,-32.09961 0.1,-1.9 0.8,-2.40078 2.5,-2.80078 5.6,-1.2 11.20039,-2.89922 16.90039,-4.19922 10.8,-2.5 19.9,-7.200003 26,-17.000003 8.5,-13.7 4.30078,-28.599609 -10.19922,-35.599609 -4.9,-2.4 -9.80117,-4.701172 -14.70117,-7.201172 -8.3,-4.1 -16.79961,-7.6 -23.59961,-14.5 -10.1,-10.2 -20.9,-19.499219 -31.5,-29.1992192 -1.4,-1.26874997 -2.60776,-1.94448197 -3.74219,-2.00976597 z m 0.51758,11.67187517 c 0.375,-0.0625 0.82422,0.138672 1.32422,0.638672 3.5,3.3 7.10156,6.498828 10.60156,9.798828 -0.1,0.2 -0.30039,0.39961 -0.40039,0.59961 -4.5,-2.1 -9.2,-4 -13.5,-6.5 -1.9,-1.1 0.59961,-2.39961 1.09961,-3.59961 0.2,-0.55 0.5,-0.875 0.875,-0.9375 z m -18.68359,7.042969 c 0.5373,0.01 1.24687,0.282813 2.10937,0.695313 16.8,8.3 33.6,16.399218 50.5,24.699218 10.7,5.2 21.39961,10.401172 32.09961,15.701172 0.8,0.6 1.5,0.998438 3,1.898438 -4.1,0.4 -7.20078,0.6 -10.30078,1 -4.5,0.5 -5.99883,3.40039 -3.79883,7.40039 3,5.4 6.1,10.800782 9.5,16.800781 -8.5,0.6 -16.60078,2.50039 -23.80078,-3.09961 -2.3,-1.8 -4.69961,-1.70039 -6.59961,0.59961 -1.9,2.3 -1.09961,4.49883 0.90039,6.29883 4.9,4.4 10.99883,5.40078 17.29883,5.80078 1.7,0.1 3.39961,0 5.09961,0.5 -7.9,1.8 -15.79883,3.700783 -23.79883,5.300783 -3.3,0.7 -4.39961,2.39961 -4.59961,5.59961 -0.8,11.2 -0.40117,22.39961 -0.70117,33.59961 -0.6,24.3 -0.99961,48.50078 -1.59961,72.80078 -0.1,5.2 -1.80039,9.99844 -5.40039,13.89844 -5.4,5.9 -13,5 -17,-2 -3.2,-5.8 -3.00039,-12.2 -3.40039,-18.5 -0.5,-8.8 0.60078,-17.69844 -1.69922,-26.39844 -2.6,-9.9 -8.30039,-14.4 -18.40039,-14.5 -13.9,-0.2 -27.89922,-0.70117 -41.69922,0.79883 -15.3,1.7 -30.60117,3.50078 -44.20117,11.80078 -4.9,3 -8.79883,6.39961 -7.79883,13.09961 1.3,8 1.49922,16.19961 -0.30078,24.09961 -1.799998,8.2 -5.299998,15.3 -14.499998,17.5 -10.4,2.5 -20,-3.59961 -22,-14.09961 -2.100001,-11.2 -3.09961,-22.40078 -3.09961,-33.80078 0.1,-15.3 -0.199219,-30.7 0.300781,-46 0.3,-12.5 0.4,-25.09961 1.999999,-37.59961 0.3,-2.6 0.89922,-3.999613 4.19922,-4.099613 20.4,-0.6 40.900778,-0.30039 61.300778,-0.90039 18.1,-0.5 36.09922,10e-4 54.19922,-0.79883 7.8,-0.3 9.80078,1.4 9.80078,-10 0,-19.099999 0.49844,-38.101171 0.89844,-57.201171 0,-2.7 0.50078,-5.499218 0.30078,-8.199218 -0.125,-2 0.2959,-2.711914 1.19141,-2.695313 z M 11.126472,49.514997 c 8.6,11.5 16.8,22.400391 25,33.40039 0.6,0.8 1.100391,1.69883 1.900391,2.29883 1.2,1.1 2.60039,1.80156 4.40039,1.10156 1.8,-0.7 2.798438,-1.90039 2.898438,-3.90039 0.2,-4.299999 0.500781,-8.599999 0.800781,-13.499999 8.3,6.8 16.199609,13.199609 24.59961,20.099609 -2.1,0.3 -3.6,0.59922 -5,0.69922 -5.900001,0.4 -7.200001,1.50117 -8.500001,7.70117 -1.5,7.300003 -1.8,14.699223 -2.5,22.699223 -19.2,-11 -37.099218,-22.600003 -44.199218,-45.000004 -2.7000001,-8.4 -2.6003911,-16.699609 0.599609,-25.599609 z M 290.8667,69.550153 c 1.61875,-0.03555 2.47305,0.753125 2.56055,2.765625 0.4,4.6 -0.90117,8.498828 -4.20117,12.298829 -2.7,-4.700001 -5.3,-9.200391 -8,-13.900391 3.3,-0.4 6.10039,-0.69961 8.90039,-1.09961 0.2625,-0.0375 0.50898,-0.05938 0.74023,-0.06445 z M 128.73585,180.83336 c 0.72187,-0.0563 1.19023,0.28164 1.49023,1.18164 2.2,8.3 3.80039,16.80039 1.90039,25.40039 -1.9,8.8 -7.90078,12.79922 -16.80078,12.19922 -1.6,-0.1 -2.99883,-0.4 -4.79883,-0.5 1.6,-9.3 1.8,-18.30039 0.5,-27.40039 -0.3,-1.8 0.29922,-2.89883 1.69922,-3.79883 4.7,-3 9.90117,-5.10039 15.20117,-6.90039 0.3,-0.1 0.56797,-0.16289 0.8086,-0.18164 z"
   style="fill:#ffffff;fill-opacity:1" /><path
   id="path20"
   style="fill:#ffffff;fill-opacity:1"
   d="m 119.52686,277.41539 c -7.4,-0.1 -11.80039,2.99922 -13.90039,10.19922 -2.2,7.5 -2.30039,15.1 -0.40039,22.5 1.7,6.4 6.29961,10.80039 13.09961,12.40039 6.4,1.5 11.1,-1.10039 15,-5.90039 1.7,-2.1 3.30117,-4.39922 4.70117,-6.69922 2.5,-4 0.49922,-7.60078 -4.30078,-7.80078 -3.7,-0.1 -7.49922,0 -11.19922,0 -2.2,0 -4.10117,0.60117 -4.20117,3.20117 -0.1,2.5 2.00078,3.09883 3.80078,3.29883 2.6,0.3 5.20078,0.0996 7.80078,0.0996 0.1,0.4 0.29883,0.70117 0.29883,0.70117 -2.6,3.1 -4.7,6.99961 -9.5,6.59961 -4.5,-0.4 -7.70039,-3.3 -8.90039,-7.5 -2,-7.1 -1.79883,-14.19961 1.20117,-21.09961 0.7,-1.6 1.79922,-3.30078 3.69922,-3.30078 5.5,-0.1 11,-0.19961 14.5,5.40039 1.1,1.8 2.60039,3.4 4.90039,2 2.5,-1.5 1.89961,-3.70078 0.59961,-5.80078 -3.9,-6.5 -10.19922,-8.19883 -17.19922,-8.29883 z m -85.800779,0.19922 c -3.2,-0.1 -3.799609,2.40117 -3.599609,5.20117 0.4,7.7 0.6,15.39961 1.5,23.09961 0.6,5.1 2.799609,7.89883 6.599609,8.29883 4.1,0.4 8.1,1.10078 11.5,0.80078 3.1,0 5.500391,3.9e-4 7.900391,-0.0996 1.9,0 3.099219,-0.80078 3.199219,-2.80078 0.1,-2 -0.799219,-3.10039 -2.699219,-3.40039 -1.4,-0.2 -2.900391,-0.4 -4.400391,-0.5 -4.1,-0.3 -8.198828,-0.59961 -12.298828,-0.59961 -2.2,0 -2.901562,-0.8 -3.101562,-3 -0.8,-7.3 -1.398438,-14.7 -1.398438,-22 0,-2.5 -0.301172,-4.9 -3.201172,-5 z m 48.701171,1.20117 c -8.8,-0.2 -17.10117,8.9 -17.20117,19 -0.1,9.7 6.60039,16.89961 15.90039,17.09961 9.3,0.2 18.999608,-8.7 19.099608,-17.5 0.1,-8.6 -9.298828,-18.39961 -17.798828,-18.59961 z m 176.798828,0.39844 c -1.8,0.1 -3.19883,1.20078 -3.29883,3.30078 0,1.9 -0.10156,3.69961 -0.10156,5.59961 -0.1,2 -0.3,3.50117 -3,3.70117 -1.8,0.1 -3.09844,1.59922 -2.89844,3.69922 0.1,2.1 1.39844,3.09961 3.39844,3.09961 2.6,0.1 3.3,1.40078 3.5,3.80078 0.4,4 0.90117,7.89922 2.20117,11.69922 1.5,4.2 4.29922,6.70078 8.19922,6.80078 2.8,-0.3 5.70117,-1.70078 7.70117,-4.80078 0.9,-1.5 0.69961,-2.79961 -0.40039,-4.09961 -1.1,-1.3 -2.50078,-0.99961 -3.80078,-0.59961 -0.7,0.3 -1.30039,0.69922 -1.90039,1.19922 -2,1.5 -3.19961,0.89961 -3.59961,-1.40039 -0.4,-2.4 -0.59961,-4.7 -1.09961,-7 -0.4,-1.8 -1.2,-3.8 -0.5,-5.5 0.9,-2.1 3.20039,-0.69961 4.90039,-1.09961 1.9,-0.4 3.19922,-1.10039 3.19922,-3.40039 0,-2.3 -1.49883,-3.49922 -3.29883,-3.19922 -5.2,0.9 -6.00156,-1.8 -5.60156,-6 0,-0.9 -0.0992,-1.69961 -0.19922,-2.59961 -0.3,-1.9 -1.30039,-3.30117 -3.40039,-3.20117 z M 82.526862,285.515 c 4.3,0.1 11.2,7.49922 11,11.69922 -0.2,5.3 -6.60117,10.7 -12.20117,10.5 -6.1,-0.2 -9.49883,-3.99922 -9.29883,-10.19922 0.2,-6.3 5.3,-12.1 10.5,-12 z m 118.292968,1.38867 c -2.0771,-0.1 -4.28047,0.71797 -6.29297,2.51172 -0.8,0.7 -1.40039,1.70039 -2.40039,2.90039 -3.4,-5.6 -7.7,-6.40039 -12.5,-3.40039 -0.9,0.5 -1.50039,0.20039 -2.40039,-0.0996 -3.6,-1.3 -5.79961,0.4 -5.09961,4 1.3,6.4 0.89922,12.89883 1.69922,19.29883 0.2,2.3 0.70039,4.5 3.40039,4.5 2.7,0.1 3.30039,-2.00039 3.40039,-4.40039 0.2,-4.8 0.49961,-9.69844 1.59961,-14.39844 0.3,-1.2 0.60117,-3.00156 2.20117,-3.10156 1.7,-0.1 1.89883,1.70039 2.29883,2.90039 1.6,4.5 2.1,9.20078 3,13.80078 0.4,2 0.80117,4.49883 3.70117,4.29883 3,-0.2 2.89844,-2.49922 2.89844,-4.69922 v -3.69922 c -0.1,-3.8 0.30039,-7.40039 1.90039,-10.90039 0.4,-0.9 0.80039,-2.09961 1.90039,-2.09961 1.3,0 1.7,1.39844 2,2.39844 0.3,1 0.60078,2.10117 0.80078,3.20117 0.6,3.2 1.09844,6.59883 1.89844,9.79883 0.3,1.4 1.10039,3.10078 2.90039,2.80078 1.9,-0.3 3.60039,-1.50078 3.40039,-3.80078 -0.5,-5.8 -0.79961,-11.7 -3.59961,-17 -1.575,-3.0375 -4.03647,-4.68201 -6.70703,-4.81055 z m 27.88867,0.002 c -0.39407,0.0172 -0.78789,0.0531 -1.18164,0.10938 -5.5,0.8 -11.10039,7.10039 -12.40039,13.90039 -0.8,4.4 2.70039,11.5 6.90039,14 4,2.3 8.59922,1.49883 11.69922,-2.20117 1.1,-1.3 2,-2.69883 3.5,-4.79883 0.8,3.1 1.30039,5.49883 1.90039,7.79883 0.5,2.2 2.19961,2.40117 4.09961,2.20117 2,-0.2 2.40078,-1.60117 2.30078,-3.20117 0,-0.9 0.10039,-1.79961 -0.0996,-2.59961 -1.1,-5.2 -2.2,-10.39961 -3.5,-15.59961 -1.5,-5.8125 -7.30774,-9.8668 -13.21875,-9.60938 z m -74.71484,1.22657 c -2.67749,0.0964 -4.91133,1.50234 -6.76758,4.18359 -4.1,5.8 -4.49961,12.29844 -3.09961,18.89844 0.9,4.6 6.00039,8.20117 10.40039,8.20117 6.4,0.1 11.40039,-4.7 11.90039,-11.5 0.2,-3 -0.60078,-6.30117 0.69922,-9.20117 1.5,-3.5 -0.20039,-5.39844 -2.90039,-6.89844 -2,-1.1 -4.09883,-2.2 -6.29883,-3 -1.40625,-0.5 -2.71655,-0.72742 -3.93359,-0.68359 z m 75.0332,5.84375 c 0.91758,-0.0492 1.88789,0.17578 2.90039,0.73828 2.7,1.5 1.09961,3.80156 0.59961,5.60156 -0.8,2.3 -1.89961,4.59922 -3.09961,6.69922 -2,3.4 -3.00039,3.30078 -5.40039,0.30078 -1.1,-1.4 -1.90117,-2.90039 -1.70117,-4.40039 0,-2.8 1.00156,-4.90117 2.60156,-6.70117 1.1875,-1.3125 2.57031,-2.15625 4.09961,-2.23828 z m -73.70117,1.43945 c 1.8,0.1 2.60156,1.50039 3.10156,2.90039 0.9,2.1 1.29922,4.29961 1.19922,6.09961 0,5.3 -1.89961,8.29961 -5.09961,8.09961 -2.6,-0.2 -5.09961,-4.70039 -4.59961,-8.40039 0.3,-2.2 0.8,-4.39883 2,-6.29883 0.8,-1.3 1.69844,-2.50039 3.39844,-2.40039 z" />
</svg>
