<?xml version="1.0" encoding="utf-8"?>
<!-- Generator: Adobe Illustrator 24.3.0, SVG Export Plug-In . SVG Version: 6.00 Build 0)  -->
<svg version="1.1" id="Layer_1" xmlns="http://www.w3.org/2000/svg" xmlns:xlink="http://www.w3.org/1999/xlink" x="0px" y="0px"
	 viewBox="0 0 374.5 374.5" style="enable-background:new 0 0 374.5 374.5;" xml:space="preserve">
<style type="text/css">
	.st0{fill:#2B4B9B;}
	.st1{fill:#FFFFFF;}
	.st2{fill:#2C4C9C;}
	.st3{fill:#324F9D;}
	.st4{fill:#2B4C9B;}
	.st5{fill:#37474F;}
</style>
<g>
	<path class="st5" d="M0.4,0.1c123.5,0,247,0,370.4-0.1c3,0,3.6,0.6,3.6,3.6c-0.1,123.5-0.1,247-0.1,370.4c-1.3,0.7-2.7,0.4-4,0.4
		c-121.9,0-243.8,0-365.7,0c-5.1,0-4.6,0.5-4.6-4.6c0-121.9,0-243.8,0-365.7C0.1,2.8-0.3,1.4,0.4,0.1z"/>
	<path class="st1" d="M73.7,85.8c0-2.2,0.1-4.4,0-6.6c-0.1-2.3,0.3-4.4,2.4-5.4c2.3-1.1,4.3-0.2,6.2,1.3
		c9.8,8.1,19.9,15.8,29.4,24.2c6.3,5.7,12.8,8.4,21.6,8c23.1-1,46.3-0.8,69.5-1.1c5.7-0.1,11.4-0.5,17.2-0.5c2.2,0,2.7-0.7,2.7-2.8
		c0.2-18.3,0.6-36.6,0.9-54.9c0.1-6.3,0.3-12.7,0.6-19c0.2-3.9,3.1-5.7,6.7-4.1c2.7,1.2,5.4,2.4,8,3.8c1.6,0.9,2.4,0.5,3.3-0.9
		c1.6-2.4,3.2-4.7,4.9-7c2.6-3.5,4.8-3.7,8-0.8c10.6,9.7,21.4,19,31.5,29.2c6.8,6.9,15.3,10.4,23.6,14.5c4.9,2.5,9.8,4.8,14.7,7.2
		c14.5,7,18.7,21.9,10.2,35.6c-6.1,9.8-15.2,14.5-26,17c-5.7,1.3-11.3,3-16.9,4.2c-1.7,0.4-2.4,0.9-2.5,2.8
		c-0.8,10.7-0.4,21.4-0.7,32.1c-0.6,23.3-1,46.5-1.6,69.8c-0.2,7.8-2.8,14.8-8.4,20.5c-9.4,9.5-23.7,7.5-30.2-4.3
		c-3.6-6.5-4.2-13.7-4.5-20.9c-0.3-7.7,0.3-15.4-0.7-23.1c-1.1-8.3-3.9-11.3-12.1-11.5c-17.7-0.2-35.3-0.4-52.8,2.6
		c-2.9,0.5-2.9,1.5-2.3,3.7c2.5,9.4,3.8,19,1.4,28.7c-2.7,10.9-11.1,17.8-22.2,18c-3.1,0.1-6.2,0.5-9.3-0.5c-2.3-0.7-2.3,1.4-3,2.5
		c-10.1,16.4-32.6,17.7-44.4,2.5c-4.7-6-5.4-13.2-6.3-20.3c-3-22.1-1.1-44.3-1.5-66.4c-0.1-4.1,0-8.2,0.2-12.3
		c0.2-2.8-0.6-4.4-3.3-5.8C75.7,139.5,64.3,132,54.7,122c-12.2-12.7-19.2-27.4-17.6-45.4c0.6-6.8,2.5-13.1,5.8-19.1
		c2.2-4.1,5.7-4.2,8.5-0.5c6.3,8.5,12.6,17,18.9,25.5c0.9,1.2,1.8,2.3,2.7,3.5C73.2,86,73.5,85.9,73.7,85.8z"/>
	<path class="st1" d="M166.8,326.7c-2.6,0-5.2,0.2-7.8-0.1c-1.8-0.2-3.9-0.8-3.8-3.3c0.1-2.6,2-3.2,4.2-3.2c3.7,0,7.5-0.1,11.2,0
		c4.8,0.2,6.8,3.8,4.3,7.8c-1.4,2.3-3,4.6-4.7,6.7c-3.9,4.8-8.6,7.4-15,5.9c-6.8-1.6-11.4-6-13.1-12.4c-1.9-7.4-1.8-15,0.4-22.5
		c2.1-7.2,6.5-10.3,13.9-10.2c7,0.1,13.3,1.8,17.2,8.3c1.3,2.1,1.9,4.3-0.6,5.8c-2.3,1.4-3.8-0.2-4.9-2c-3.5-5.6-9-5.5-14.5-5.4
		c-1.9,0-3,1.7-3.7,3.3c-3,6.9-3.2,14-1.2,21.1c1.2,4.2,4.4,7.1,8.9,7.5c4.8,0.4,6.9-3.5,9.5-6.6
		C167.1,327.4,166.9,327.1,166.8,326.7z"/>
	<path class="st1" d="M229,310.3c1-1.2,1.6-2.2,2.4-2.9c4.6-4.1,10.2-3.1,13,2.3c2.8,5.3,3.1,11.2,3.6,17c0.2,2.3-1.5,3.5-3.4,3.8
		c-1.8,0.3-2.6-1.4-2.9-2.8c-0.8-3.2-1.3-6.6-1.9-9.8c-0.2-1.1-0.5-2.2-0.8-3.2c-0.3-1-0.7-2.4-2-2.4c-1.1,0-1.5,1.2-1.9,2.1
		c-1.6,3.5-2,7.1-1.9,10.9c0,1.2,0,2.5,0,3.7c0,2.2,0.1,4.5-2.9,4.7c-2.9,0.2-3.3-2.3-3.7-4.3c-0.9-4.6-1.4-9.3-3-13.8
		c-0.4-1.2-0.6-3-2.3-2.9c-1.6,0.1-1.9,1.9-2.2,3.1c-1.1,4.7-1.4,9.6-1.6,14.4c-0.1,2.4-0.7,4.5-3.4,4.4c-2.7,0-3.2-2.2-3.4-4.5
		c-0.8-6.4-0.4-12.9-1.7-19.3c-0.7-3.6,1.5-5.3,5.1-4c0.9,0.3,1.5,0.6,2.4,0.1C221.3,303.9,225.6,304.7,229,310.3z"/>
	<path class="st1" d="M102.1,315.8c0.1-10.1,8.4-19.2,17.2-19c8.5,0.2,17.9,10,17.8,18.6c-0.1,8.8-9.8,17.7-19.1,17.5
		C108.7,332.7,102,325.5,102.1,315.8z"/>
	<path class="st1" d="M274.1,325.9c-1.5,2.1-2.4,3.5-3.5,4.8c-3.1,3.7-7.7,4.5-11.7,2.2c-4.2-2.5-7.7-9.6-6.9-14
		c1.3-6.8,6.9-13.1,12.4-13.9c6.3-0.9,12.8,3.3,14.4,9.5c1.3,5.2,2.4,10.4,3.5,15.6c0.2,0.8,0.1,1.7,0.1,2.6c0.1,1.6-0.3,3-2.3,3.2
		c-1.9,0.2-3.6,0-4.1-2.2C275.4,331.4,274.9,329,274.1,325.9z"/>
	<path class="st1" d="M191.4,337.4c-4.4,0-9.5-3.6-10.4-8.2c-1.4-6.6-1-13.1,3.1-18.9c2.7-3.9,6.2-5.1,10.7-3.5
		c2.2,0.8,4.3,1.9,6.3,3c2.7,1.5,4.4,3.4,2.9,6.9c-1.3,2.9-0.5,6.2-0.7,9.2C202.8,332.7,197.8,337.5,191.4,337.4z"/>
	<path class="st1" d="M304.1,338.9c-3.9-0.1-6.7-2.6-8.2-6.8c-1.3-3.8-1.8-7.7-2.2-11.7c-0.2-2.4-0.9-3.7-3.5-3.8
		c-2,0-3.3-1-3.4-3.1c-0.2-2.1,1.1-3.6,2.9-3.7c2.7-0.2,2.9-1.7,3-3.7c0-1.9,0.1-3.7,0.1-5.6c0.1-2.1,1.5-3.2,3.3-3.3
		c2.1-0.1,3.1,1.3,3.4,3.2c0.1,0.9,0.2,1.7,0.2,2.6c-0.4,4.2,0.4,6.9,5.6,6c1.8-0.3,3.3,0.9,3.3,3.2c0,2.3-1.3,3-3.2,3.4
		c-1.7,0.4-4-1-4.9,1.1c-0.7,1.7,0.1,3.7,0.5,5.5c0.5,2.3,0.7,4.6,1.1,7c0.4,2.3,1.6,2.9,3.6,1.4c0.6-0.5,1.2-0.9,1.9-1.2
		c1.3-0.4,2.7-0.7,3.8,0.6c1.1,1.3,1.3,2.6,0.4,4.1C309.8,337.2,306.9,338.6,304.1,338.9z"/>
	<path class="st1" d="M86.6,333c-3.4,0.3-7.4-0.4-11.5-0.8c-3.8-0.4-6-3.2-6.6-8.3c-0.9-7.7-1.1-15.4-1.5-23.1
		c-0.2-2.8,0.4-5.3,3.6-5.2c2.9,0.1,3.2,2.5,3.2,5c0,7.3,0.6,14.7,1.4,22c0.2,2.2,0.9,3,3.1,3c4.1,0,8.2,0.3,12.3,0.6
		c1.5,0.1,3,0.3,4.4,0.5c1.9,0.3,2.8,1.4,2.7,3.4c-0.1,2-1.3,2.8-3.2,2.8C92.1,333,89.7,333,86.6,333z"/>
	<path class="st5" d="M320.9,79.7c-4.1,0.4-7.2,0.6-10.3,1c-4.5,0.5-6,3.4-3.8,7.4c3,5.4,6.1,10.8,9.5,16.8
		c-8.5,0.6-16.6,2.5-23.8-3.1c-2.3-1.8-4.7-1.7-6.6,0.6c-1.9,2.3-1.1,4.5,0.9,6.3c4.9,4.4,11,5.4,17.3,5.8c1.7,0.1,3.4,0,5.1,0.5
		c-7.9,1.8-15.8,3.7-23.8,5.3c-3.3,0.7-4.4,2.4-4.6,5.6c-0.8,11.2-0.4,22.4-0.7,33.6c-0.6,24.3-1,48.5-1.6,72.8
		c-0.1,5.2-1.8,10-5.4,13.9c-5.4,5.9-13,5-17-2c-3.2-5.8-3-12.2-3.4-18.5c-0.5-8.8,0.6-17.7-1.7-26.4c-2.6-9.9-8.3-14.4-18.4-14.5
		c-13.9-0.2-27.9-0.7-41.7,0.8c-15.3,1.7-30.6,3.5-44.2,11.8c-4.9,3-8.8,6.4-7.8,13.1c1.3,8,1.5,16.2-0.3,24.1
		c-1.8,8.2-5.3,15.3-14.5,17.5c-10.4,2.5-20-3.6-22-14.1c-2.1-11.2-3.1-22.4-3.1-33.8c0.1-15.3-0.2-30.7,0.3-46
		c0.3-12.5,0.4-25.1,2-37.6c0.3-2.6,0.9-4,4.2-4.1c20.4-0.6,40.9-0.3,61.3-0.9c18.1-0.5,36.1,0,54.2-0.8c7.8-0.3,9.8,1.4,9.8-10
		c0-19.1,0.5-38.1,0.9-57.2c0-2.7,0.5-5.5,0.3-8.2c-0.2-3.2,1-3.1,3.3-2c16.8,8.3,33.6,16.4,50.5,24.7c10.7,5.2,21.4,10.4,32.1,15.7
		C318.7,78.4,319.4,78.8,320.9,79.7z"/>
	<path class="st5" d="M48,67.5C56.6,79,64.8,89.9,73,100.9c0.6,0.8,1.1,1.7,1.9,2.3c1.2,1.1,2.6,1.8,4.4,1.1
		c1.8-0.7,2.8-1.9,2.9-3.9c0.2-4.3,0.5-8.6,0.8-13.5c8.3,6.8,16.2,13.2,24.6,20.1c-2.1,0.3-3.6,0.6-5,0.7c-5.9,0.4-7.2,1.5-8.5,7.7
		c-1.5,7.3-1.8,14.7-2.5,22.7c-19.2-11-37.1-22.6-44.2-45C44.7,84.7,44.8,76.4,48,67.5z"/>
	<path class="st5" d="M147.4,237.1c1.6-9.3,1.8-18.3,0.5-27.4c-0.3-1.8,0.3-2.9,1.7-3.8c4.7-3,9.9-5.1,15.2-6.9
		c1.2-0.4,1.9-0.2,2.3,1c2.2,8.3,3.8,16.8,1.9,25.4c-1.9,8.8-7.9,12.8-16.8,12.2C150.6,237.5,149.2,237.2,147.4,237.1z"/>
	<path class="st5" d="M318.1,88.7c3.3-0.4,6.1-0.7,8.9-1.1c2.1-0.3,3.2,0.4,3.3,2.7c0.4,4.6-0.9,8.5-4.2,12.3
		C323.4,97.9,320.8,93.4,318.1,88.7z"/>
	<path class="st5" d="M263.4,40.7c-4.5-2.1-9.2-4-13.5-6.5c-1.9-1.1,0.6-2.4,1.1-3.6c0.4-1.1,1.2-1.3,2.2-0.3
		c3.5,3.3,7.1,6.5,10.6,9.8C263.7,40.3,263.5,40.5,263.4,40.7z"/>
	<path class="st5" d="M118.2,325.7c-6.1-0.2-9.5-4-9.3-10.2c0.2-6.3,5.3-12.1,10.5-12c4.3,0.1,11.2,7.5,11,11.7
		C130.2,320.5,123.8,325.9,118.2,325.7z"/>
	<path class="st5" d="M259.2,320.9c0-2.8,1-4.9,2.6-6.7c1.9-2.1,4.3-3,7-1.5c2.7,1.5,1.1,3.8,0.6,5.6c-0.8,2.3-1.9,4.6-3.1,6.7
		c-2,3.4-3,3.3-5.4,0.3C259.8,323.9,259,322.4,259.2,320.9z"/>
	<path class="st5" d="M196.5,322.4c0,5.3-1.9,8.3-5.1,8.1c-2.6-0.2-5.1-4.7-4.6-8.4c0.3-2.2,0.8-4.4,2-6.3c0.8-1.3,1.7-2.5,3.4-2.4
		c1.8,0.1,2.6,1.5,3.1,2.9C196.2,318.4,196.6,320.6,196.5,322.4z"/>
</g>
</svg>
