<svg xmlns="http://www.w3.org/2000/svg" viewBox="0 0 179.38 78.45"><title>Mova_Logo_black_def_rgb</title><g id="Layer_1" data-name="Layer 1"><path d="M411,298.81a3.88,3.88,0,0,0,.37-1.41c0-1.26-.87-2-2.38-2-2.16,0-3.58,1.78-3.69,4.57h-.06a7.79,7.79,0,0,1,1.23-4.48,3.83,3.83,0,0,0,.73-2.13c0-2.17-2.38-4.48-2.48-4.58l-.23-.22-.23.22c-.1.1-2.48,2.41-2.48,4.58a3.83,3.83,0,0,0,.73,2.13,7.8,7.8,0,0,1,1.22,4.48h0c-.11-2.79-1.54-4.57-3.7-4.57-1.51,0-2.37.72-2.37,2a3.88,3.88,0,0,0,.37,1.41c.29.7.44,1.12.1,1.47l-.56.55h.79a2.33,2.33,0,0,0,2.16-1.11c.28-.38.43-.57.84-.57a1.22,1.22,0,0,1,1,.84h-.07a.67.67,0,0,0-.67.67v.61a.67.67,0,0,0,.67.67h1c-.09.27-.36.6-1.14.8a2.16,2.16,0,0,0-1.47,1,1.78,1.78,0,0,0,.05,1.54l.08.19h.39a7.71,7.71,0,0,1,1.54.11,3.2,3.2,0,0,0-.17,1.12c0,1,1,1.61,1.59,2l.29.18.29-.18c.59-.37,1.59-1,1.59-2a3.24,3.24,0,0,0-.17-1.12,7.71,7.71,0,0,1,1.54-.11h.38l.09-.19a1.8,1.8,0,0,0,.05-1.55,2.18,2.18,0,0,0-1.5-1,1.41,1.41,0,0,1-1.11-.79h1a.67.67,0,0,0,.67-.67v-.61a.67.67,0,0,0-.67-.67h-.05a1.21,1.21,0,0,1,1.05-.84c.41,0,.56.19.84.57a2.33,2.33,0,0,0,2.16,1.11h.79l-.56-.55C410.52,299.93,410.67,299.51,411,298.81ZM403,295.17a3.19,3.19,0,0,1-.63-1.79c0-1.53,1.47-3.25,2.05-3.87.58.62,2.05,2.34,2.05,3.87a3.19,3.19,0,0,1-.63,1.79,8.32,8.32,0,0,0-1.32,4.82h-.2A8.32,8.32,0,0,0,403,295.17Zm-1.74,3.33a1.58,1.58,0,0,0-1.37.83,1.66,1.66,0,0,1-1,.79,2.63,2.63,0,0,0-.31-1.56,3.35,3.35,0,0,1-.33-1.16c0-.33,0-1.32,1.72-1.32s2.92,1.45,3,3.82A1.87,1.87,0,0,0,401.29,298.5Zm5.31,4.88c.2.05.82.2,1,.62a1,1,0,0,1,0,.79,6.38,6.38,0,0,0-2,.23l-.32.11.12.32a3,3,0,0,1,.24,1.23c0,.6-.74,1.09-1.22,1.39-.48-.3-1.22-.79-1.22-1.39a3,3,0,0,1,.24-1.23l.12-.32-.32-.11a6.41,6.41,0,0,0-2-.23,1,1,0,0,1,0-.79c.21-.42.83-.57,1.07-.63a1.94,1.94,0,0,0,1.62-1.43h1A2,2,0,0,0,406.6,303.38Zm0-2.72v.61h-4.38v-.63Zm3.71-2.1a2.63,2.63,0,0,0-.31,1.56,1.64,1.64,0,0,1-1-.79,1.58,1.58,0,0,0-1.37-.83,1.85,1.85,0,0,0-1.71,1.4c.12-2.37,1.26-3.82,3-3.82s1.72,1,1.72,1.32A3.32,3.32,0,0,1,410.35,298.56Z" transform="translate(-309.12 -230.4)"/><path d="M427.21,301.06a7.45,7.45,0,0,1,.21-1.45c.2-1,.41-2.07-.16-2.64a1.19,1.19,0,0,0-.87-.32h0a3.63,3.63,0,0,0-2.31,1.11l-.34.36c-.57.59-1.43,1.48-1.86,1.48-.06,0-.07,0-.1,0-.19-.19.28-1.09,1.3-2.11,0,0,2-2.09,2-3.19s-.42-2.07-1.6-2.07a13.53,13.53,0,0,0-1.83.15,8.55,8.55,0,0,1-2.37,0,13.53,13.53,0,0,0-1.83-.15c-1.18,0-1.6,1.07-1.6,2.07s2,3.17,2,3.19c1,1,1.49,1.92,1.3,2.11,0,0,0,.05-.1,0-.43,0-1.29-.89-1.86-1.48l-.35-.36a3.58,3.58,0,0,0-2.3-1.11h0a1.19,1.19,0,0,0-.87.32c-.57.57-.36,1.63-.16,2.64a7.45,7.45,0,0,1,.21,1.45,8.73,8.73,0,0,1-.16,1.32c-.18,1.1-.37,2.23.29,2.9a1.4,1.4,0,0,0,1,.43c.8,0,1.81-.61,3-1.81s1.62-1.31,1.8-1.31a.15.15,0,0,1,.13.05c.23.23.27.53.27,1.86a6.21,6.21,0,0,0,1.24,3l.52-.4h0l.05,0a5.44,5.44,0,0,1-1.06-2.59c0-1.33,0-1.63.27-1.86a.15.15,0,0,1,.13-.05c.18,0,.67.17,1.8,1.31,1.79,1.81,3.19,2.24,4.05,1.38.66-.67.47-1.8.29-2.9A8.73,8.73,0,0,1,427.21,301.06Zm-.49,1.43c.16.93.32,1.9-.11,2.33a.76.76,0,0,1-.57.24c-.43,0-1.21-.28-2.54-1.62-1-1-1.74-1.51-2.27-1.51a.8.8,0,0,0-.5.18v-.9h5.09v-.66h-5.09v-6.34h-.66v6.34H415v.66h5.09V302a.84.84,0,0,0-.39-.11h0c-.53,0-1.23.47-2.27,1.51-1.33,1.34-2.12,1.62-2.54,1.62a.76.76,0,0,1-.57-.24c-.43-.43-.27-1.4-.11-2.33a9.41,9.41,0,0,0,.17-1.43,8.43,8.43,0,0,0-.22-1.58c-.16-.81-.35-1.72,0-2.05a.62.62,0,0,1,.41-.12h0a3,3,0,0,1,1.84.91l.34.35c.95,1,1.67,1.68,2.33,1.69a.7.7,0,0,0,.57-.24c.75-.75-.5-2.23-1.3-3-.54-.54-1.8-2.12-1.8-2.72,0-.42.09-1.41.94-1.41a12.8,12.8,0,0,1,1.75.14,9.74,9.74,0,0,0,2.53,0,12.8,12.8,0,0,1,1.75-.14c.85,0,.94,1,.94,1.41,0,.6-1.26,2.18-1.8,2.72-.8.82-2,2.29-1.3,3a.76.76,0,0,0,.57.24c.66,0,1.38-.7,2.33-1.69l.34-.35a3,3,0,0,1,1.84-.91h0a.58.58,0,0,1,.4.12c.33.33.14,1.24,0,2.05a8.43,8.43,0,0,0-.22,1.58A9.41,9.41,0,0,0,426.72,302.49Z" transform="translate(-309.12 -230.4)"/><path d="M436.81,297.13h-3.22v-7.35h3.35a1.86,1.86,0,0,1,2,1.8,1.66,1.66,0,0,1-1.17,1.6,1.9,1.9,0,0,1,1.48,1.83A2.24,2.24,0,0,1,436.81,297.13Zm-.25-4.4a.91.91,0,0,0,1-.87.84.84,0,0,0-.95-.8H435v1.67Zm1.34,2.1a1,1,0,0,0-1.13-.94H435v2h1.73A1.08,1.08,0,0,0,437.9,294.83Z" transform="translate(-309.12 -230.4)"/><path d="M445.42,297.13h-1.27v-.77a1.65,1.65,0,0,1-1.51.83,1.87,1.87,0,0,1-1.94-2.11v-3.36H442V295c0,.74.39,1,.95,1s1.16-.45,1.16-1.7v-2.61h1.31Z" transform="translate(-309.12 -230.4)"/><path d="M452.05,297.13H447.2v-7.35h1.37v6.07h3.48Z" transform="translate(-309.12 -230.4)"/><path d="M457.65,293.38v3.75h-1.27v-.79a1.93,1.93,0,0,1-1.7.9,1.58,1.58,0,0,1-1.75-1.6,1.71,1.71,0,0,1,1.73-1.66l1.09-.16c.21,0,.63-.12.63-.57s-.43-.55-.89-.55a1,1,0,0,0-1.16.79h-1.24a2.24,2.24,0,0,1,2.51-1.86C456.79,291.63,457.65,292.11,457.65,293.38Zm-1.3,1.48v-.3a2.58,2.58,0,0,1-.7.16l-.54.09c-.23,0-.87.12-.87.72,0,.43.31.63.77.63A1.29,1.29,0,0,0,456.35,294.86Z" transform="translate(-309.12 -230.4)"/><path d="M468.64,294.42H470a3,3,0,0,1-3.3,2.9,3.53,3.53,0,0,1-3.55-3.85c0-2,1.15-3.86,3.6-3.86a2.93,2.93,0,0,1,3.21,2.61h-1.4a1.66,1.66,0,0,0-1.84-1.33c-1.5,0-2.19,1.2-2.19,2.55s.77,2.56,2.19,2.56A1.69,1.69,0,0,0,468.64,294.42Z" transform="translate(-309.12 -230.4)"/><path d="M475.85,293.38v3.75h-1.27v-.79a1.92,1.92,0,0,1-1.7.9,1.58,1.58,0,0,1-1.74-1.6,1.71,1.71,0,0,1,1.72-1.66l1.09-.16c.21,0,.63-.12.63-.57s-.43-.55-.89-.55c-.81,0-1,.38-1.15.79H471.3a2.24,2.24,0,0,1,2.51-1.86C475,291.63,475.85,292.11,475.85,293.38Zm-1.3,1.48v-.3a2.59,2.59,0,0,1-.69.16l-.55.09c-.23,0-.87.12-.87.72,0,.43.32.63.78.63A1.28,1.28,0,0,0,474.55,294.86Z" transform="translate(-309.12 -230.4)"/><path d="M479,297.13h-1.36v-7.35h4.93v1.28H479v1.71h3.29v1.28H479Z" transform="translate(-309.12 -230.4)"/><path d="M484.52,294.82a1.24,1.24,0,0,0,1.36,1.3,1.16,1.16,0,0,0,1.15-.62h1.21a2.35,2.35,0,0,1-2.41,1.74,2.51,2.51,0,0,1-2.57-2.78,2.57,2.57,0,0,1,2.6-2.83,2.38,2.38,0,0,1,2.43,2.65v.54Zm0-1H487a1,1,0,0,0-1.16-1.11A1.22,1.22,0,0,0,484.55,293.86Zm.77-3.11,1.49-2.33,1,.78-1.4,1.55Z" transform="translate(-309.12 -230.4)"/><path d="M438.67,305.92h1.4a3,3,0,0,1-3.3,2.89c-2.3,0-3.54-1.77-3.54-3.84s1.14-3.86,3.6-3.86a2.92,2.92,0,0,1,3.2,2.61h-1.4a1.66,1.66,0,0,0-1.84-1.33c-1.5,0-2.19,1.2-2.19,2.55s.78,2.56,2.19,2.56A1.69,1.69,0,0,0,438.67,305.92Z" transform="translate(-309.12 -230.4)"/><path d="M445.89,304.88v3.74h-1.27v-.78a1.93,1.93,0,0,1-1.7.9,1.59,1.59,0,0,1-1.75-1.61,1.71,1.71,0,0,1,1.73-1.65l1.09-.16c.21,0,.63-.12.63-.57s-.43-.55-.9-.55a1,1,0,0,0-1.15.79h-1.24a2.25,2.25,0,0,1,2.51-1.87C445,303.12,445.89,303.61,445.89,304.88Zm-1.3,1.48v-.3a2.58,2.58,0,0,1-.7.16l-.54.08c-.23,0-.87.13-.87.73,0,.43.31.63.77.63A1.29,1.29,0,0,0,444.59,306.36Z" transform="translate(-309.12 -230.4)"/><path d="M449,308.62h-1.37v-7.34h4.93v1.28H449v1.71h3.28v1.28H449Z" transform="translate(-309.12 -230.4)"/><path d="M454.55,306.32a1.25,1.25,0,0,0,1.37,1.3,1.16,1.16,0,0,0,1.14-.62h1.22a2.37,2.37,0,0,1-2.42,1.74,2.52,2.52,0,0,1-2.57-2.78,2.58,2.58,0,0,1,2.6-2.84,2.39,2.39,0,0,1,2.43,2.66v.54Zm0-1H457a1,1,0,0,0-1.16-1.11A1.22,1.22,0,0,0,454.58,305.36Z" transform="translate(-309.12 -230.4)"/><path d="M469.43,308.62h-5.25v-1.21l1.73-1.53c1.32-1.16,1.95-1.58,1.95-2.35a1,1,0,0,0-1.15-1,1.29,1.29,0,0,0-1.35,1.34h-1.31a2.57,2.57,0,0,1,2.79-2.55,2.11,2.11,0,0,1,2.38,2.08c0,1.33-1,2.07-2.3,3.14l-1.07.91h3.58Z" transform="translate(-309.12 -230.4)"/><path d="M475.62,305c0,2.28-.77,3.74-2.57,3.74s-2.57-1.46-2.57-3.74.78-3.72,2.57-3.72S475.62,302.72,475.62,305Zm-1.34,0c0-1.58-.39-2.51-1.23-2.51s-1.23.93-1.23,2.51.39,2.52,1.23,2.52S474.28,306.59,474.28,305Z" transform="translate(-309.12 -230.4)"/><path d="M482.05,308.62H476.8v-1.21l1.73-1.53c1.33-1.16,2-1.58,2-2.35a1,1,0,0,0-1.15-1,1.29,1.29,0,0,0-1.35,1.34h-1.31a2.57,2.57,0,0,1,2.79-2.55,2.11,2.11,0,0,1,2.38,2.08c0,1.33-1,2.07-2.3,3.14l-1.07.91h3.58Z" transform="translate(-309.12 -230.4)"/><path d="M488.51,307.41v1.21h-4.83v-1.21h1.76v-4.33a4.08,4.08,0,0,1-1.76.56V302.4a3.37,3.37,0,0,0,1.95-1h1.11v6Z" transform="translate(-309.12 -230.4)"/></g><g id="Mova"><path d="M487.53,254.44v25.71h-8.71v-5.4a13.19,13.19,0,0,1-11.67,6.19c-5.9,0-11.95-3.17-11.95-11,0-9.29,8.43-10.88,11.81-11.38l7.49-1.08c1.44-.22,4.32-.79,4.32-3.89,0-2.81-2.95-3.82-6.12-3.82-5.55,0-7.13,2.67-7.92,5.48h-8.5c1.44-8.64,8-12.82,17.21-12.82C481.63,242.42,487.53,245.73,487.53,254.44ZM478.6,264.6v-2a20,20,0,0,1-4.75,1.08l-3.74.58c-1.59.21-6,.86-6,5,0,3,2.16,4.32,5.33,4.32A8.8,8.8,0,0,0,478.6,264.6Z" transform="translate(-309.12 -230.4)"/><path d="M403.51,249.62c0,12.1-7.56,19.3-18.43,19.3s-18.37-7.2-18.37-19.3,7.56-19.22,18.37-19.22S403.51,237.6,403.51,249.62Zm-27.65,0c0,7.49,4,11,9.36,11,5.76,0,9.14-4,9.14-11,0-7.41-4-10.94-9.36-10.94C379.24,238.68,375.86,242.71,375.86,249.62Z" transform="translate(-309.12 -230.4)"/><path d="M444.56,236.88l3.87,39.65-8.53,4.34-29.79-26.43,8.59-4.39,20.92,19.49-3.47-28.38Z" transform="translate(-309.12 -230.4)"/><path d="M361.71,262.05l11.34,22.26-8,4.05-10.55-20.72c-2-3.91-4.78-4.76-8.18-3-3.78,1.93-5.17,5.55-2.33,11.13l9.45,18.54-8,4.05L335,277.61c-2-3.91-4.9-4.7-8.24-3-3.72,1.9-5.08,5.58-2.3,11l9.48,18.61-8,4.05-16.84-33,7.83-4,2.48,4.88c-.31-3.15.88-7.32,5.89-9.87,4.42-2.25,8.71-1.93,12,.75.08-3,1-7.38,7-10.42C351.43,253,358.08,254.93,361.71,262.05Z" transform="translate(-309.12 -230.4)"/></g></svg>