<?xml version="1.0" encoding="UTF-8" standalone="no"?>
<svg
   xmlns:dc="http://purl.org/dc/elements/1.1/"
   xmlns:cc="http://creativecommons.org/ns#"
   xmlns:rdf="http://www.w3.org/1999/02/22-rdf-syntax-ns#"
   xmlns:svg="http://www.w3.org/2000/svg"
   xmlns="http://www.w3.org/2000/svg"
   xmlns:sodipodi="http://sodipodi.sourceforge.net/DTD/sodipodi-0.dtd"
   xmlns:inkscape="http://www.inkscape.org/namespaces/inkscape"
   version="1.1"
   x="0px"
   y="0px"
   viewBox="0 0 179.19 78.459064"
   xml:space="preserve"
   id="svg68"
   sodipodi:docname="mova-logo-white.svg"
   width="179.19"
   height="78.459068"
   inkscape:version="1.0.2 (16c81841c1, 2021-03-16)"><metadata
   id="metadata74"><rdf:RDF><cc:Work
       rdf:about=""><dc:format>image/svg+xml</dc:format><dc:type
         rdf:resource="http://purl.org/dc/dcmitype/StillImage" /><dc:title></dc:title></cc:Work></rdf:RDF></metadata><defs
   id="defs72">
	
	
	
	
	
	

	
	
	
	
</defs><sodipodi:namedview
   pagecolor="#ffffff"
   bordercolor="#666666"
   borderopacity="1"
   objecttolerance="10"
   gridtolerance="10"
   guidetolerance="10"
   inkscape:pageopacity="0"
   inkscape:pageshadow="2"
   inkscape:window-width="1920"
   inkscape:window-height="1024"
   id="namedview70"
   showgrid="false"
   inkscape:zoom="4.0197037"
   inkscape:cx="117.33922"
   inkscape:cy="55.774858"
   inkscape:window-x="0"
   inkscape:window-y="28"
   inkscape:window-maximized="1"
   inkscape:current-layer="svg68"
   fit-margin-top="0"
   fit-margin-left="0"
   fit-margin-right="0"
   fit-margin-bottom="0" />
<style
   type="text/css"
   id="style2">
	.st0{fill:none;stroke:#000000;stroke-width:0.657;stroke-miterlimit:10;}
</style>
<g
   id="g6"
   transform="translate(-309.11,-230.39)"
   style="fill:#fcfcfc;fill-opacity:1;stroke:#ffffff;stroke-opacity:1">
		<path
   class="st0"
   d="m 421.58,307.33 c 0,0 -1.17,-1.54 -1.17,-2.83 0,-1.35 -0.04,-1.76 -0.37,-2.09 -0.33,-0.33 -0.96,-0.18 -2.4,1.26 -1.44,1.45 -2.77,2.19 -3.58,1.38 -0.81,-0.81 -0.04,-2.72 -0.04,-3.99 0,-1.27 -0.84,-3.16 -0.15,-3.86 0.51,-0.51 1.83,-0.09 2.71,0.79 0.88,0.88 2.18,2.4 2.77,1.8 0.6,-0.6 -0.98,-2.26 -1.3,-2.58 -0.32,-0.32 -1.89,-2.12 -1.89,-2.95 0,-0.27 0.04,-1.74 1.27,-1.74 1.23,0 2.17,0.25 3.01,0.25 0.85,0 1.79,-0.25 3.01,-0.25 1.23,0 1.27,1.47 1.27,1.74 0,0.84 -1.58,2.63 -1.9,2.95 -0.32,0.32 -1.89,1.98 -1.3,2.58 0.59,0.6 1.9,-0.92 2.77,-1.8 0.88,-0.88 2.2,-1.3 2.71,-0.79 0.69,0.7 -0.15,2.59 -0.15,3.86 0,1.27 0.77,3.18 -0.03,3.99 -0.81,0.81 -2.14,0.07 -3.58,-1.38 -1.44,-1.45 -2.07,-1.59 -2.4,-1.26 -0.33,0.33 -0.37,0.74 -0.37,2.09 0,1.29 1.12,2.78 1.12,2.78 m -17.56,-6.97 c 0,-4.73 -1.96,-4.88 -1.96,-6.93 0,-2.06 2.38,-4.35 2.38,-4.35 0,0 2.38,2.29 2.38,4.35 0,2.06 -1.96,2.2 -1.96,6.93 m -1.53,0.02 c 0,-2.84 -1.32,-4.58 -3.37,-4.58 -2.05,0 -2.05,1.33 -2.05,1.65 0,1.12 1.21,2.27 0.37,3.11 2.11,0 1.66,-1.68 3,-1.68 0.5,0 1.43,0.48 1.43,1.51 m 2.86,-0.01 c 0,-2.84 1.33,-4.58 3.37,-4.58 2.05,0 2.05,1.33 2.05,1.65 0,1.12 -1.21,2.27 -0.37,3.11 -2.11,0 -1.66,-1.68 -3,-1.68 -0.51,0 -1.43,0.48 -1.43,1.51 m -2.53,1.27 c 0,0.93 -0.82,1.29 -1.41,1.44 -0.31,0.08 -1.93,0.41 -1.23,2.07 1.3,0.04 1.59,0.04 2.13,0.22 -0.22,0.58 -0.26,0.88 -0.26,1.35 0,0.87 1.03,1.44 1.55,1.77 0.52,-0.33 1.55,-0.9 1.55,-1.77 0,-0.47 -0.05,-0.77 -0.26,-1.35 0.54,-0.18 0.83,-0.18 2.13,-0.22 0.71,-1.66 -0.91,-1.99 -1.23,-2.07 -0.58,-0.14 -1.41,-0.51 -1.41,-1.44 m 1.4,0 h -4.36 c -0.19,0 -0.34,-0.15 -0.34,-0.34 v -0.62 c 0,-0.19 0.15,-0.34 0.34,-0.34 h 4.36 c 0.19,0 0.34,0.15 0.34,0.34 v 0.62 c 0,0.19 -0.15,0.34 -0.34,0.34 z"
   id="path4"
   style="fill:#fcfcfc;fill-opacity:1;stroke:#ffffff;stroke-opacity:1" />
	</g><path
   class="st0"
   d="m 105.87,70.49 h 10.84 m -5.42,-6.67 v 8.73"
   id="path8"
   style="fill:#fcfcfc;fill-opacity:1;stroke:#ffffff;stroke-opacity:1" /><g
   id="g18"
   transform="translate(-309.11,-230.39)"
   style="fill:#fcfcfc;fill-opacity:1">
		<path
   d="m 436.81,297.13 h -3.21 v -7.35 h 3.35 c 1.33,0 2.03,0.91 2.03,1.81 0,0.61 -0.33,1.3 -1.17,1.6 1.1,0.37 1.48,1.13 1.48,1.83 -0.01,1.06 -0.89,2.11 -2.48,2.11 z m -0.25,-4.4 c 0.67,0 1.01,-0.45 1.01,-0.87 0,-0.41 -0.33,-0.8 -0.96,-0.8 h -1.67 v 1.67 z m 1.34,2.1 c 0,-0.47 -0.38,-0.93 -1.12,-0.93 h -1.83 v 1.95 h 1.73 c 0.83,0 1.22,-0.53 1.22,-1.02 z"
   id="path10"
   style="fill:#fcfcfc;fill-opacity:1" />
		<path
   d="m 445.42,297.13 h -1.27 v -0.77 c -0.32,0.5 -0.76,0.83 -1.5,0.83 -1.13,0 -1.94,-0.72 -1.94,-2.11 v -3.36 h 1.3 v 3.26 c 0,0.74 0.39,1.05 0.94,1.05 0.61,0 1.17,-0.45 1.17,-1.7 v -2.61 h 1.3 z"
   id="path12"
   style="fill:#fcfcfc;fill-opacity:1" />
		<path
   d="m 452.05,297.13 h -4.85 v -7.35 h 1.37 v 6.07 h 3.48 z"
   id="path14"
   style="fill:#fcfcfc;fill-opacity:1" />
		<path
   d="m 457.65,293.38 v 3.75 h -1.27 v -0.79 c -0.42,0.69 -1.12,0.9 -1.7,0.9 -0.86,0 -1.74,-0.46 -1.74,-1.61 0,-1.35 1.23,-1.59 1.72,-1.66 l 1.09,-0.16 c 0.21,-0.03 0.63,-0.12 0.63,-0.57 0,-0.41 -0.43,-0.56 -0.89,-0.56 -0.81,0 -1.04,0.39 -1.15,0.8 h -1.24 c 0.21,-1.26 1.17,-1.87 2.51,-1.87 1.18,0.02 2.04,0.5 2.04,1.77 z m -1.3,1.48 v -0.29 c -0.2,0.08 -0.42,0.12 -0.69,0.16 l -0.54,0.08 c -0.23,0.03 -0.87,0.13 -0.87,0.72 0,0.43 0.32,0.63 0.78,0.63 0.77,0 1.32,-0.58 1.32,-1.3 z"
   id="path16"
   style="fill:#fcfcfc;fill-opacity:1" />
	</g><g
   id="g28"
   transform="translate(-309.11,-230.39)"
   style="fill:#fcfcfc;fill-opacity:1">
		<path
   d="m 468.64,294.42 h 1.4 c -0.12,1.94 -1.61,2.9 -3.3,2.9 -2.3,0 -3.55,-1.77 -3.55,-3.84 0,-1.98 1.14,-3.86 3.6,-3.86 1.73,0 3.01,0.93 3.2,2.61 h -1.4 c -0.08,-0.83 -0.87,-1.33 -1.84,-1.33 -1.5,0 -2.19,1.2 -2.19,2.55 0,1.43 0.78,2.56 2.19,2.56 0.92,-0.01 1.81,-0.45 1.89,-1.59 z"
   id="path20"
   style="fill:#fcfcfc;fill-opacity:1" />
		<path
   d="m 475.85,293.38 v 3.75 h -1.27 v -0.79 c -0.42,0.69 -1.12,0.9 -1.7,0.9 -0.86,0 -1.74,-0.46 -1.74,-1.61 0,-1.35 1.23,-1.59 1.72,-1.66 l 1.09,-0.16 c 0.21,-0.03 0.63,-0.12 0.63,-0.57 0,-0.41 -0.43,-0.56 -0.89,-0.56 -0.81,0 -1.04,0.39 -1.15,0.8 h -1.24 c 0.21,-1.26 1.17,-1.87 2.51,-1.87 1.18,0.02 2.04,0.5 2.04,1.77 z m -1.3,1.48 v -0.29 c -0.2,0.08 -0.42,0.12 -0.69,0.16 l -0.54,0.08 c -0.23,0.03 -0.87,0.13 -0.87,0.72 0,0.43 0.32,0.63 0.78,0.63 0.78,0 1.32,-0.58 1.32,-1.3 z"
   id="path22"
   style="fill:#fcfcfc;fill-opacity:1" />
		<path
   d="m 478.95,297.13 h -1.37 v -7.35 h 4.93 v 1.28 h -3.57 v 1.71 h 3.29 v 1.28 h -3.29 v 3.08 z"
   id="path24"
   style="fill:#fcfcfc;fill-opacity:1" />
		<path
   d="m 484.52,294.82 c 0.03,0.88 0.59,1.3 1.37,1.3 0.51,0 0.96,-0.19 1.14,-0.62 h 1.22 c -0.27,1.14 -1.31,1.74 -2.41,1.74 -1.37,0 -2.57,-0.9 -2.57,-2.78 0,-1.89 1.23,-2.83 2.6,-2.83 1.31,0 2.43,0.87 2.43,2.66 v 0.54 h -3.78 z m 0.03,-0.96 h 2.46 c 0,-0.71 -0.45,-1.11 -1.15,-1.11 -0.63,0 -1.19,0.32 -1.31,1.11 z m 0.77,-3.11 1.49,-2.33 1.02,0.78 -1.41,1.55 z"
   id="path26"
   style="fill:#fcfcfc;fill-opacity:1" />
	</g><g
   id="g38"
   transform="translate(-309.11,-230.39)"
   style="fill:#fcfcfc;fill-opacity:1">
		<path
   d="m 438.67,305.92 h 1.4 c -0.12,1.94 -1.61,2.9 -3.3,2.9 -2.3,0 -3.55,-1.77 -3.55,-3.84 0,-1.98 1.14,-3.86 3.6,-3.86 1.73,0 3.01,0.93 3.2,2.61 h -1.4 c -0.08,-0.83 -0.87,-1.33 -1.84,-1.33 -1.5,0 -2.19,1.2 -2.19,2.55 0,1.43 0.78,2.56 2.19,2.56 0.92,-0.01 1.81,-0.45 1.89,-1.59 z"
   id="path30"
   style="fill:#fcfcfc;fill-opacity:1" />
		<path
   d="m 445.89,304.88 v 3.75 h -1.27 v -0.79 c -0.42,0.69 -1.12,0.9 -1.7,0.9 -0.86,0 -1.74,-0.46 -1.74,-1.61 0,-1.35 1.23,-1.59 1.72,-1.66 l 1.09,-0.16 c 0.21,-0.03 0.63,-0.12 0.63,-0.57 0,-0.41 -0.43,-0.56 -0.89,-0.56 -0.81,0 -1.04,0.39 -1.15,0.8 h -1.24 c 0.21,-1.26 1.17,-1.87 2.51,-1.87 1.18,0.01 2.04,0.5 2.04,1.77 z m -1.3,1.48 v -0.29 c -0.2,0.08 -0.42,0.12 -0.69,0.16 l -0.54,0.08 c -0.23,0.03 -0.87,0.13 -0.87,0.72 0,0.43 0.32,0.63 0.78,0.63 0.77,0 1.32,-0.58 1.32,-1.3 z"
   id="path32"
   style="fill:#fcfcfc;fill-opacity:1" />
		<path
   d="m 448.99,308.62 h -1.37 v -7.35 h 4.93 v 1.28 h -3.57 v 1.71 h 3.29 v 1.28 h -3.29 v 3.08 z"
   id="path34"
   style="fill:#fcfcfc;fill-opacity:1" />
		<path
   d="m 454.55,306.32 c 0.03,0.88 0.59,1.3 1.37,1.3 0.51,0 0.96,-0.19 1.14,-0.62 h 1.22 c -0.27,1.14 -1.31,1.74 -2.41,1.74 -1.37,0 -2.57,-0.9 -2.57,-2.78 0,-1.89 1.23,-2.83 2.6,-2.83 1.31,0 2.43,0.87 2.43,2.66 v 0.54 h -3.78 z m 0.03,-0.96 h 2.46 c 0,-0.71 -0.45,-1.11 -1.15,-1.11 -0.63,0 -1.19,0.32 -1.31,1.11 z"
   id="path36"
   style="fill:#fcfcfc;fill-opacity:1" />
	</g><g
   id="g48"
   transform="translate(-309.11,-230.39)"
   style="fill:#fcfcfc;fill-opacity:1">
		<path
   d="m 469.12,308.62 h -5.25 v -1.22 l 1.73,-1.52 c 1.32,-1.17 1.95,-1.58 1.95,-2.35 0,-0.64 -0.45,-1.04 -1.15,-1.04 -0.76,0 -1.31,0.47 -1.35,1.33 h -1.3 c 0,-1.68 1.34,-2.55 2.78,-2.55 1.36,0 2.38,0.76 2.38,2.08 0,1.33 -1.03,2.08 -2.3,3.15 l -1.07,0.9 h 3.58 z"
   id="path40"
   style="fill:#fcfcfc;fill-opacity:1" />
		<path
   d="m 475.32,305 c 0,2.28 -0.78,3.74 -2.57,3.74 -1.8,0 -2.57,-1.46 -2.57,-3.74 0,-2.28 0.78,-3.73 2.57,-3.73 1.79,0.01 2.57,1.45 2.57,3.73 z m -1.35,0 c 0,-1.58 -0.39,-2.51 -1.23,-2.51 -0.84,0 -1.23,0.92 -1.23,2.51 0,1.59 0.39,2.52 1.23,2.52 0.84,0 1.23,-0.93 1.23,-2.52 z"
   id="path42"
   style="fill:#fcfcfc;fill-opacity:1" />
		<path
   d="m 481.74,308.62 h -5.25 v -1.22 l 1.73,-1.52 c 1.32,-1.17 1.95,-1.58 1.95,-2.35 0,-0.64 -0.45,-1.04 -1.16,-1.04 -0.76,0 -1.31,0.47 -1.35,1.33 h -1.3 c 0,-1.68 1.34,-2.55 2.78,-2.55 1.37,0 2.38,0.76 2.38,2.08 0,1.33 -1.03,2.08 -2.3,3.15 l -1.07,0.9 h 3.58 v 1.22 z"
   id="path44"
   style="fill:#fcfcfc;fill-opacity:1" />
		<path
   d="m 488.28,308.62 h -5.25 v -1.22 l 1.73,-1.52 c 1.32,-1.17 1.95,-1.58 1.95,-2.35 0,-0.64 -0.45,-1.04 -1.16,-1.04 -0.76,0 -1.31,0.47 -1.35,1.33 h -1.3 c 0,-1.68 1.34,-2.55 2.78,-2.55 1.37,0 2.38,0.76 2.38,2.08 0,1.33 -1.03,2.08 -2.3,3.15 l -1.07,0.9 h 3.58 v 1.22 z"
   id="path46"
   style="fill:#fcfcfc;fill-opacity:1" />
	</g>
<g
   id="g53"
   transform="translate(-309.11,-230.39)"
   style="fill:#ffffff;fill-opacity:1">
		<path
   d="m 487.53,254.44 v 25.71 h -8.71 v -5.4 c -2.88,4.75 -7.71,6.19 -11.67,6.19 -5.9,0 -11.95,-3.17 -11.95,-11.02 0,-9.29 8.43,-10.87 11.81,-11.38 l 7.49,-1.08 c 1.44,-0.22 4.32,-0.79 4.32,-3.89 0,-2.81 -2.95,-3.82 -6.12,-3.82 -5.54,0 -7.13,2.66 -7.92,5.47 h -8.5 c 1.44,-8.64 7.99,-12.82 17.21,-12.82 8.14,0.02 14.04,3.33 14.04,12.04 z m -8.93,10.16 v -2.02 c -1.37,0.58 -2.88,0.79 -4.75,1.08 l -3.74,0.58 c -1.58,0.22 -5.98,0.86 -5.98,4.97 0,2.95 2.16,4.32 5.33,4.32 5.4,0 9.14,-3.96 9.14,-8.93 z"
   id="path51"
   style="fill:#ffffff;fill-opacity:1" />
	</g><g
   id="g57"
   transform="translate(-309.11,-230.39)"
   style="fill:#ffffff;fill-opacity:1">
		<path
   d="m 403.51,249.62 c 0,12.1 -7.56,19.3 -18.43,19.3 -10.8,0 -18.36,-7.2 -18.36,-19.3 0,-12.02 7.56,-19.23 18.36,-19.23 10.87,0.01 18.43,7.21 18.43,19.23 z m -27.65,0 c 0,7.49 3.96,11.02 9.36,11.02 5.76,0 9.14,-4.03 9.14,-11.02 0,-7.42 -3.96,-10.94 -9.36,-10.94 -5.76,0 -9.14,4.03 -9.14,10.94 z"
   id="path55"
   style="fill:#ffffff;fill-opacity:1" />
	</g><g
   id="g61"
   transform="translate(-309.11,-230.39)"
   style="fill:#ffffff;fill-opacity:1">
		<path
   d="m 444.56,236.88 3.87,39.65 -8.53,4.35 -29.79,-26.44 8.6,-4.38 20.92,19.49 -3.47,-28.38 z"
   id="path59"
   style="fill:#ffffff;fill-opacity:1" />
	</g><g
   id="g65"
   transform="translate(-309.11,-230.39)"
   style="fill:#ffffff;fill-opacity:1">
		<path
   d="m 361.71,262.05 11.34,22.26 -7.96,4.05 -10.56,-20.72 c -1.99,-3.91 -4.77,-4.76 -8.17,-3.03 -3.79,1.93 -5.17,5.55 -2.33,11.13 l 9.45,18.54 -7.96,4.05 -10.56,-20.72 c -1.99,-3.91 -4.9,-4.7 -8.23,-3 -3.72,1.9 -5.08,5.58 -2.3,11.03 l 9.48,18.61 -7.96,4.05 -16.84,-33.04 7.83,-3.99 2.49,4.88 c -0.31,-3.15 0.88,-7.32 5.88,-9.87 4.43,-2.26 8.71,-1.93 12.02,0.75 0.07,-3.03 1.01,-7.38 6.97,-10.42 7.13,-3.63 13.78,-1.68 17.41,5.44 z"
   id="path63"
   style="fill:#ffffff;fill-opacity:1" />
	</g>
</svg>
