<?xml version="1.0" encoding="utf-8"?>
<!-- Generator: Adobe Illustrator 24.1.3, SVG Export Plug-In . SVG Version: 6.00 Build 0)  -->
<svg version="1.1" xmlns="http://www.w3.org/2000/svg" xmlns:xlink="http://www.w3.org/1999/xlink" x="0px" y="0px"
	 viewBox="0 0 841.89 595.28" style="enable-background:new 0 0 841.89 595.28;" xml:space="preserve">
<style type="text/css">
	.st0{fill:none;stroke:#000000;stroke-width:0.657;stroke-miterlimit:10;}
</style>
<g id="Layer_1">
	<g>
		<path class="st0" d="M421.58,307.33c0,0-1.17-1.54-1.17-2.83c0-1.35-0.04-1.76-0.37-2.09c-0.33-0.33-0.96-0.18-2.4,1.26
			c-1.44,1.45-2.77,2.19-3.58,1.38c-0.81-0.81-0.04-2.72-0.04-3.99c0-1.27-0.84-3.16-0.15-3.86c0.51-0.51,1.83-0.09,2.71,0.79
			c0.88,0.88,2.18,2.4,2.77,1.8c0.6-0.6-0.98-2.26-1.3-2.58c-0.32-0.32-1.89-2.12-1.89-2.95c0-0.27,0.04-1.74,1.27-1.74
			c1.23,0,2.17,0.25,3.01,0.25c0.85,0,1.79-0.25,3.01-0.25c1.23,0,1.27,1.47,1.27,1.74c0,0.84-1.58,2.63-1.9,2.95
			c-0.32,0.32-1.89,1.98-1.3,2.58s1.9-0.92,2.77-1.8c0.88-0.88,2.2-1.3,2.71-0.79c0.69,0.7-0.15,2.59-0.15,3.86
			c0,1.27,0.77,3.18-0.03,3.99c-0.81,0.81-2.14,0.07-3.58-1.38c-1.44-1.45-2.07-1.59-2.4-1.26c-0.33,0.33-0.37,0.74-0.37,2.09
			c0,1.29,1.12,2.78,1.12,2.78 M404.03,300.31c0-4.73-1.96-4.88-1.96-6.93c0-2.06,2.38-4.35,2.38-4.35s2.38,2.29,2.38,4.35
			c0,2.06-1.96,2.2-1.96,6.93 M403.34,300.33c0-2.84-1.32-4.58-3.37-4.58c-2.05,0-2.05,1.33-2.05,1.65c0,1.12,1.21,2.27,0.37,3.11
			c2.11,0,1.66-1.68,3-1.68c0.5,0,1.43,0.48,1.43,1.51 M405.58,300.33c0-2.84,1.33-4.58,3.37-4.58c2.05,0,2.05,1.33,2.05,1.65
			c0,1.12-1.21,2.27-0.37,3.11c-2.11,0-1.66-1.68-3-1.68c-0.51,0-1.43,0.48-1.43,1.51 M403.67,301.61c0,0.93-0.82,1.29-1.41,1.44
			c-0.31,0.08-1.93,0.41-1.23,2.07c1.3,0.04,1.59,0.04,2.13,0.22c-0.22,0.58-0.26,0.88-0.26,1.35c0,0.87,1.03,1.44,1.55,1.77
			c0.52-0.33,1.55-0.9,1.55-1.77c0-0.47-0.05-0.77-0.26-1.35c0.54-0.18,0.83-0.18,2.13-0.22c0.71-1.66-0.91-1.99-1.23-2.07
			c-0.58-0.14-1.41-0.51-1.41-1.44 M406.63,301.61h-4.36c-0.19,0-0.34-0.15-0.34-0.34v-0.62c0-0.19,0.15-0.34,0.34-0.34h4.36
			c0.19,0,0.34,0.15,0.34,0.34v0.62C406.97,301.46,406.82,301.61,406.63,301.61z"/>
	</g>
	<path class="st0" d="M414.98,300.88h10.84 M420.4,294.21v8.73"/>
	<g>
		<path d="M436.81,297.13h-3.21v-7.35h3.35c1.33,0,2.03,0.91,2.03,1.81c0,0.61-0.33,1.3-1.17,1.6c1.1,0.37,1.48,1.13,1.48,1.83
			C439.28,296.08,438.4,297.13,436.81,297.13z M436.56,292.73c0.67,0,1.01-0.45,1.01-0.87c0-0.41-0.33-0.8-0.96-0.8h-1.67v1.67
			H436.56z M437.9,294.83c0-0.47-0.38-0.93-1.12-0.93h-1.83v1.95h1.73C437.51,295.85,437.9,295.32,437.9,294.83z"/>
		<path d="M445.42,297.13h-1.27v-0.77c-0.32,0.5-0.76,0.83-1.5,0.83c-1.13,0-1.94-0.72-1.94-2.11v-3.36h1.3v3.26
			c0,0.74,0.39,1.05,0.94,1.05c0.61,0,1.17-0.45,1.17-1.7v-2.61h1.3V297.13z"/>
		<path d="M452.05,297.13h-4.85v-7.35h1.37v6.07h3.48V297.13z"/>
		<path d="M457.65,293.38v3.75h-1.27v-0.79c-0.42,0.69-1.12,0.9-1.7,0.9c-0.86,0-1.74-0.46-1.74-1.61c0-1.35,1.23-1.59,1.72-1.66
			l1.09-0.16c0.21-0.03,0.63-0.12,0.63-0.57c0-0.41-0.43-0.56-0.89-0.56c-0.81,0-1.04,0.39-1.15,0.8h-1.24
			c0.21-1.26,1.17-1.87,2.51-1.87C456.79,291.63,457.65,292.11,457.65,293.38z M456.35,294.86v-0.29c-0.2,0.08-0.42,0.12-0.69,0.16
			l-0.54,0.08c-0.23,0.03-0.87,0.13-0.87,0.72c0,0.43,0.32,0.63,0.78,0.63C455.8,296.16,456.35,295.58,456.35,294.86z"/>
	</g>
	<g>
		<path d="M468.64,294.42h1.4c-0.12,1.94-1.61,2.9-3.3,2.9c-2.3,0-3.55-1.77-3.55-3.84c0-1.98,1.14-3.86,3.6-3.86
			c1.73,0,3.01,0.93,3.2,2.61h-1.4c-0.08-0.83-0.87-1.33-1.84-1.33c-1.5,0-2.19,1.2-2.19,2.55c0,1.43,0.78,2.56,2.19,2.56
			C467.67,296,468.56,295.56,468.64,294.42z"/>
		<path d="M475.85,293.38v3.75h-1.27v-0.79c-0.42,0.69-1.12,0.9-1.7,0.9c-0.86,0-1.74-0.46-1.74-1.61c0-1.35,1.23-1.59,1.72-1.66
			l1.09-0.16c0.21-0.03,0.63-0.12,0.63-0.57c0-0.41-0.43-0.56-0.89-0.56c-0.81,0-1.04,0.39-1.15,0.8h-1.24
			c0.21-1.26,1.17-1.87,2.51-1.87C474.99,291.63,475.85,292.11,475.85,293.38z M474.55,294.86v-0.29c-0.2,0.08-0.42,0.12-0.69,0.16
			l-0.54,0.08c-0.23,0.03-0.87,0.13-0.87,0.72c0,0.43,0.32,0.63,0.78,0.63C474.01,296.16,474.55,295.58,474.55,294.86z"/>
		<path d="M478.95,297.13h-1.37v-7.35h4.93v1.28h-3.57v1.71h3.29v1.28h-3.29V297.13z"/>
		<path d="M484.52,294.82c0.03,0.88,0.59,1.3,1.37,1.3c0.51,0,0.96-0.19,1.14-0.62h1.22c-0.27,1.14-1.31,1.74-2.41,1.74
			c-1.37,0-2.57-0.9-2.57-2.78c0-1.89,1.23-2.83,2.6-2.83c1.31,0,2.43,0.87,2.43,2.66v0.54H484.52z M484.55,293.86h2.46
			c0-0.71-0.45-1.11-1.15-1.11C485.23,292.75,484.67,293.07,484.55,293.86z M485.32,290.75l1.49-2.33l1.02,0.78l-1.41,1.55H485.32z"
			/>
	</g>
	<g>
		<path d="M438.67,305.92h1.4c-0.12,1.94-1.61,2.9-3.3,2.9c-2.3,0-3.55-1.77-3.55-3.84c0-1.98,1.14-3.86,3.6-3.86
			c1.73,0,3.01,0.93,3.2,2.61h-1.4c-0.08-0.83-0.87-1.33-1.84-1.33c-1.5,0-2.19,1.2-2.19,2.55c0,1.43,0.78,2.56,2.19,2.56
			C437.7,307.5,438.59,307.06,438.67,305.92z"/>
		<path d="M445.89,304.88v3.75h-1.27v-0.79c-0.42,0.69-1.12,0.9-1.7,0.9c-0.86,0-1.74-0.46-1.74-1.61c0-1.35,1.23-1.59,1.72-1.66
			l1.09-0.16c0.21-0.03,0.63-0.12,0.63-0.57c0-0.41-0.43-0.56-0.89-0.56c-0.81,0-1.04,0.39-1.15,0.8h-1.24
			c0.21-1.26,1.17-1.87,2.51-1.87C445.03,303.12,445.89,303.61,445.89,304.88z M444.59,306.36v-0.29c-0.2,0.08-0.42,0.12-0.69,0.16
			l-0.54,0.08c-0.23,0.03-0.87,0.13-0.87,0.72c0,0.43,0.32,0.63,0.78,0.63C444.04,307.66,444.59,307.08,444.59,306.36z"/>
		<path d="M448.99,308.62h-1.37v-7.35h4.93v1.28h-3.57v1.71h3.29v1.28h-3.29V308.62z"/>
		<path d="M454.55,306.32c0.03,0.88,0.59,1.3,1.37,1.3c0.51,0,0.96-0.19,1.14-0.62h1.22c-0.27,1.14-1.31,1.74-2.41,1.74
			c-1.37,0-2.57-0.9-2.57-2.78c0-1.89,1.23-2.83,2.6-2.83c1.31,0,2.43,0.87,2.43,2.66v0.54H454.55z M454.58,305.36h2.46
			c0-0.71-0.45-1.11-1.15-1.11C455.26,304.25,454.7,304.57,454.58,305.36z"/>
	</g>
	<g>
		<path d="M469.12,308.62h-5.25v-1.22l1.73-1.52c1.32-1.17,1.95-1.58,1.95-2.35c0-0.64-0.45-1.04-1.15-1.04
			c-0.76,0-1.31,0.47-1.35,1.33h-1.3c0-1.68,1.34-2.55,2.78-2.55c1.36,0,2.38,0.76,2.38,2.08c0,1.33-1.03,2.08-2.3,3.15l-1.07,0.9
			h3.58V308.62z"/>
		<path d="M475.32,305c0,2.28-0.78,3.74-2.57,3.74c-1.8,0-2.57-1.46-2.57-3.74s0.78-3.73,2.57-3.73
			C474.54,301.28,475.32,302.72,475.32,305z M473.97,305c0-1.58-0.39-2.51-1.23-2.51s-1.23,0.92-1.23,2.51s0.39,2.52,1.23,2.52
			S473.97,306.59,473.97,305z"/>
		<path d="M481.74,308.62h-5.25v-1.22l1.73-1.52c1.32-1.17,1.95-1.58,1.95-2.35c0-0.64-0.45-1.04-1.16-1.04
			c-0.76,0-1.31,0.47-1.35,1.33h-1.3c0-1.68,1.34-2.55,2.78-2.55c1.37,0,2.38,0.76,2.38,2.08c0,1.33-1.03,2.08-2.3,3.15l-1.07,0.9
			h3.58V308.62z"/>
		<path d="M488.28,308.62h-5.25v-1.22l1.73-1.52c1.32-1.17,1.95-1.58,1.95-2.35c0-0.64-0.45-1.04-1.16-1.04
			c-0.76,0-1.31,0.47-1.35,1.33h-1.3c0-1.68,1.34-2.55,2.78-2.55c1.37,0,2.38,0.76,2.38,2.08c0,1.33-1.03,2.08-2.3,3.15l-1.07,0.9
			h3.58V308.62z"/>
	</g>
</g>
<g id="Mova">
	<g>
		<path d="M487.53,254.44v25.71h-8.71v-5.4c-2.88,4.75-7.71,6.19-11.67,6.19c-5.9,0-11.95-3.17-11.95-11.02
			c0-9.29,8.43-10.87,11.81-11.38l7.49-1.08c1.44-0.22,4.32-0.79,4.32-3.89c0-2.81-2.95-3.82-6.12-3.82c-5.54,0-7.13,2.66-7.92,5.47
			h-8.5c1.44-8.64,7.99-12.82,17.21-12.82C481.63,242.42,487.53,245.73,487.53,254.44z M478.6,264.6v-2.02
			c-1.37,0.58-2.88,0.79-4.75,1.08l-3.74,0.58c-1.58,0.22-5.98,0.86-5.98,4.97c0,2.95,2.16,4.32,5.33,4.32
			C474.86,273.53,478.6,269.57,478.6,264.6z"/>
	</g>
	<g>
		<path d="M403.51,249.62c0,12.1-7.56,19.3-18.43,19.3c-10.8,0-18.36-7.2-18.36-19.3c0-12.02,7.56-19.23,18.36-19.23
			C395.95,230.4,403.51,237.6,403.51,249.62z M375.86,249.62c0,7.49,3.96,11.02,9.36,11.02c5.76,0,9.14-4.03,9.14-11.02
			c0-7.42-3.96-10.94-9.36-10.94C379.24,238.68,375.86,242.71,375.86,249.62z"/>
	</g>
	<g>
		<path d="M444.56,236.88l3.87,39.65l-8.53,4.35l-29.79-26.44l8.6-4.38l20.92,19.49l-3.47-28.38L444.56,236.88z"/>
	</g>
	<g>
		<path d="M361.71,262.05l11.34,22.26l-7.96,4.05l-10.56-20.72c-1.99-3.91-4.77-4.76-8.17-3.03c-3.79,1.93-5.17,5.55-2.33,11.13
			l9.45,18.54l-7.96,4.05l-10.56-20.72c-1.99-3.91-4.9-4.7-8.23-3c-3.72,1.9-5.08,5.58-2.3,11.03l9.48,18.61l-7.96,4.05
			l-16.84-33.04l7.83-3.99l2.49,4.88c-0.31-3.15,0.88-7.32,5.88-9.87c4.43-2.26,8.71-1.93,12.02,0.75
			c0.07-3.03,1.01-7.38,6.97-10.42C351.43,252.98,358.08,254.93,361.71,262.05z"/>
	</g>
</g>
</svg>
